<?xml version="1.0" encoding="UTF-8"?>
<svg width="144px" height="129px" viewBox="0 0 144 129" version="1.1" xmlns="http://www.w3.org/2000/svg" xmlns:xlink="http://www.w3.org/1999/xlink">
    <title>建设中</title>
    <defs>
        <polygon id="path-1" points="0 2.001 143.9988 2.001 143.9988 126 0 126"></polygon>
    </defs>
    <g id="页面-1" stroke="none" stroke-width="1" fill="none" fill-rule="evenodd">
        <g id="空白页" transform="translate(-816.000000, -502.000000)">
            <g id="建设中" transform="translate(816.000000, 502.000000)">
                <g id="编组" transform="translate(0.000000, 0.999900)">
                    <mask id="mask-2" fill="white">
                        <use xlink:href="#path-1"></use>
                    </mask>
                    <g id="Clip-2"></g>
                    <path d="M8.6148,55.539 C8.6148,57.18 6.1548,57.18 6.1548,55.539 L6.1548,50.922 C6.1548,50.244 6.7038,49.692 7.3848,49.692 L11.9988,49.692 C13.6398,49.692 13.6398,52.155 11.9988,52.155 L8.6148,52.155 L8.6148,55.539 Z M120.1548,7.386 L124.3068,7.386 C125.9478,7.386 125.9478,9.846 124.3068,9.846 L120.1548,9.846 L120.1548,14.001 C120.1548,15.642 117.6918,15.642 117.6918,14.001 L117.6918,9.846 L113.5398,9.846 C111.8988,9.846 111.8988,7.386 113.5398,7.386 L117.6918,7.386 L117.6918,3.231 C117.6918,1.59 120.1548,1.59 120.1548,3.231 L120.1548,7.386 Z M6.1548,46.308 C6.1548,44.667 8.6148,44.667 8.6148,46.308 L8.6148,50.922 C8.6148,51.603 8.0628,52.155 7.3848,52.155 L2.7678,52.155 C1.1268,52.155 1.1268,49.692 2.7678,49.692 L6.1548,49.692 L6.1548,46.308 Z M125.5398,92.463 C125.5398,94.101 123.0768,94.101 123.0768,92.463 L123.0768,87.846 C123.0768,87.165 123.6288,86.616 124.3068,86.616 L128.9238,86.616 C130.5648,86.616 130.5648,89.076 128.9238,89.076 L125.5398,89.076 L125.5398,92.463 Z M123.0768,83.229 C123.0768,81.591 125.5398,81.591 125.5398,83.229 L125.5398,87.846 C125.5398,88.527 124.9878,89.076 124.3068,89.076 L119.6928,89.076 C118.0518,89.076 118.0518,86.616 119.6928,86.616 L123.0768,86.616 L123.0768,83.229 Z M54.3078,126 C53.6268,126 53.0778,125.448 53.0778,124.77 C53.0778,124.089 53.6268,123.54 54.3078,123.54 L101.2308,123.54 C101.9118,123.54 102.4608,124.089 102.4608,124.77 C102.4608,125.448 101.9118,126 101.2308,126 L54.3078,126 Z M36.6138,126 C35.9358,126 35.3838,125.448 35.3838,124.77 C35.3838,124.089 35.9358,123.54 36.6138,123.54 L47.3838,123.54 C48.0648,123.54 48.6138,124.089 48.6138,124.77 C48.6138,125.448 48.0648,126 47.3838,126 L36.6138,126 Z M128.9238,114.462 C128.2428,114.462 127.6908,113.91 127.6908,113.229 C127.6908,112.551 128.2428,111.999 128.9238,111.999 L142.7688,111.999 C143.4498,111.999 143.9988,112.551 143.9988,113.229 C143.9988,113.91 143.4498,114.462 142.7688,114.462 L128.9238,114.462 Z M115.0758,114.462 C114.3978,114.462 113.8458,113.91 113.8458,113.229 C113.8458,112.551 114.3978,111.999 115.0758,111.999 L118.9248,111.999 C119.6028,111.999 120.1548,112.551 120.1548,113.229 C120.1548,113.91 119.6028,114.462 118.9248,114.462 L115.0758,114.462 Z M1.2318,114.462 C0.5508,114.462 -0.0012,113.91 -0.0012,113.229 C-0.0012,112.551 0.5508,111.999 1.2318,111.999 L108.9228,111.999 C109.6038,111.999 110.1528,112.551 110.1528,113.229 C110.1528,113.91 109.6038,114.462 108.9228,114.462 L1.2318,114.462 Z" id="Fill-1" fill="#C3CBD6" mask="url(#mask-2)"></path>
                </g>
                <path d="M33.0879,20.889 C32.3619,21.615 31.2759,20.526 31.9989,19.803 L33.6309,18.171 C33.9309,17.871 34.4199,17.871 34.7199,18.171 L36.3519,19.803 C37.0779,20.526 35.9889,21.615 35.2629,20.889 L34.1769,19.803 L33.0879,20.889 Z M35.2629,16.539 C35.9889,15.813 37.0779,16.899 36.3519,17.628 L34.7199,19.26 C34.4199,19.56 33.9309,19.56 33.6309,19.26 L31.9989,17.628 C31.2759,16.899 32.3619,15.813 33.0879,16.539 L34.1769,17.628 L35.2629,16.539 Z M19.5069,101.418 C18.7809,102.141 17.6919,101.055 18.4179,100.329 L20.0499,98.7 C20.3499,98.397 20.8389,98.397 21.1389,98.7 L22.7709,100.329 C23.4939,101.055 22.4049,102.141 21.6819,101.418 L20.5929,100.329 L19.5069,101.418 Z M21.6819,97.068 C22.4049,96.342 23.4939,97.428 22.7709,98.154 L21.1389,99.786 C20.8389,100.086 20.3499,100.086 20.0499,99.786 L18.4179,98.154 C17.6919,97.428 18.7809,96.342 19.5069,97.068 L20.5929,98.154 L21.6819,97.068 Z" id="Fill-3" fill="#C3CBD6"></path>
                <path d="M70.4619,31.9221 L70.4619,31.9221 C74.0619,31.9221 77.1819,34.4151 77.9799,37.9221 L91.9989,99.6141 L48.9219,99.6141 L62.9439,37.9221 C63.7419,34.4151 66.8619,31.9221 70.4619,31.9221" id="Fill-5" fill="#F5F7F9"></path>
                <path d="M50.4654,98.385 L90.4584,98.385 L76.7784,38.196 C76.1034,35.226 73.5054,33.153 70.4634,33.153 C67.4154,33.153 64.8204,35.226 64.1454,38.196 L50.4654,98.385 Z M92.0004,100.845 L48.9234,100.845 C48.5484,100.845 48.1944,100.677 47.9604,100.383 C47.7264,100.089 47.6394,99.708 47.7234,99.342 L61.7454,37.65 C62.6754,33.555 66.2604,30.693 70.4634,30.693 C74.6634,30.693 78.2484,33.552 79.1784,37.65 L93.2004,99.342 C93.2814,99.708 93.1944,100.089 92.9634,100.383 C92.7264,100.677 92.3754,100.845 92.0004,100.845 L92.0004,100.845 Z" id="Fill-7" fill="#C3CBD6"></path>
                <path d="M55.9731,71.9226 L55.9731,71.9226 C65.3601,73.9506 75.0681,73.9656 84.4611,71.9646 L84.6531,71.9226 L87.7251,85.5276 L87.1671,85.6296 C75.8481,87.7566 64.2321,87.8016 52.8981,85.7676 L55.9731,71.9226 Z" id="Fill-9" fill="#FFFFFF"></path>
                <path d="M60.5889,47.3076 L60.7179,47.3496 C66.8919,49.3236 73.5279,49.3086 79.6929,47.3076 L82.7709,59.6166 L82.5879,59.6586 C74.3469,61.6536 65.7459,61.6356 57.5139,59.6166 L60.5889,47.3076 Z" id="Fill-11" fill="#FFFFFF"></path>
                <path d="M70.9044,74.6811 C65.7264,74.6811 60.5544,74.1741 55.8504,73.1541 C55.1874,73.0101 54.7644,72.3561 54.9084,71.6901 C55.0494,71.0271 55.7004,70.6071 56.3724,70.7481 C65.3814,72.6951 76.1724,72.7161 85.2384,70.7961 C85.9014,70.6491 86.5554,71.0781 86.6964,71.7441 C86.8374,72.4101 86.4114,73.0611 85.7484,73.2021 C81.0924,74.1891 75.9954,74.6811 70.9044,74.6811 M69.2244,88.4061 C63.5364,88.4061 57.9744,87.9321 52.6794,86.9811 C52.0104,86.8611 51.5664,86.2191 51.6864,85.5531 C51.8064,84.8811 52.4454,84.4311 53.1144,84.5571 C63.8514,86.4861 75.7464,86.4021 87.5094,84.3141 C88.1754,84.1911 88.8174,84.6411 88.9374,85.3101 C89.0544,85.9821 88.6104,86.6181 87.9414,86.7381 C81.6804,87.8481 75.3804,88.4061 69.2244,88.4061" id="Fill-13" fill="#C3CBD6"></path>
                <path d="M70.1439,50.0571 C66.9669,50.0571 63.7929,49.5831 60.6969,48.6321 C60.0489,48.4311 59.6829,47.7441 59.8839,47.0931 C60.0819,46.4451 60.7719,46.0791 61.4199,46.2801 C67.2879,48.0831 73.4769,48.0321 79.3119,46.1361 C79.9569,45.9231 80.6529,46.2801 80.8629,46.9281 C81.0729,47.5731 80.7189,48.2691 80.0709,48.4791 C76.8309,49.5321 73.4859,50.0571 70.1439,50.0571 M70.1349,62.3661 C66.0339,62.3661 61.9329,61.9041 57.9399,60.9831 C57.2769,60.8301 56.8629,60.1701 57.0159,59.5071 C57.1689,58.8411 57.8349,58.4361 58.4919,58.5831 C66.2919,60.3891 74.5239,60.3471 82.2969,58.4631 C82.9569,58.3011 83.6229,58.7091 83.7849,59.3691 C83.9439,60.0321 83.5389,60.6951 82.8789,60.8571 C78.7119,61.8621 74.4249,62.3661 70.1349,62.3661" id="Fill-15" fill="#C3CBD6"></path>
                <path d="M50.4654,98.385 L90.4584,98.385 L76.7784,38.196 C76.1034,35.226 73.5054,33.153 70.4634,33.153 C67.4154,33.153 64.8204,35.226 64.1454,38.196 L50.4654,98.385 Z M92.0004,100.845 L48.9234,100.845 C48.5484,100.845 48.1944,100.677 47.9604,100.383 C47.7264,100.089 47.6394,99.708 47.7234,99.342 L61.7454,37.65 C62.6754,33.555 66.2604,30.693 70.4634,30.693 C74.6634,30.693 78.2484,33.552 79.1784,37.65 L93.2004,99.342 C93.2814,99.708 93.1944,100.089 92.9634,100.383 C92.7264,100.677 92.3754,100.845 92.0004,100.845 L92.0004,100.845 Z" id="Fill-17" fill="#C3CBD6"></path>
                <path d="M43.5381,94.9998 L97.3851,94.9998 C99.5091,94.9998 101.2311,96.7218 101.2311,98.8458 C101.2311,100.9698 99.5091,102.6918 97.3851,102.6918 L43.5381,102.6918 C41.4141,102.6918 39.6921,100.9698 39.6921,98.8458 C39.6921,96.7218 41.4141,94.9998 43.5381,94.9998" id="Fill-19" fill="#F5F7F9"></path>
                <path d="M43.5381,96.2304 C42.0981,96.2304 40.9221,97.4034 40.9221,98.8464 C40.9221,100.2894 42.0981,101.4624 43.5381,101.4624 L97.3851,101.4624 C98.8281,101.4624 100.0011,100.2894 100.0011,98.8464 C100.0011,97.4034 98.8281,96.2304 97.3851,96.2304 L43.5381,96.2304 Z M97.3851,103.9224 L43.5381,103.9224 C40.7391,103.9224 38.4621,101.6454 38.4621,98.8464 C38.4621,96.0474 40.7391,93.7704 43.5381,93.7704 L97.3851,93.7704 C100.1841,93.7704 102.4611,96.0474 102.4611,98.8464 C102.4611,101.6454 100.1841,103.9224 97.3851,103.9224 L97.3851,103.9224 Z" id="Fill-21" fill="#C3CBD6"></path>
            </g>
        </g>
    </g>
</svg>