<svg xml:space="preserve" style="enable-background:new 0 0 2000 2000;" viewBox="0 0 2000 2000" y="0px" x="0px" xmlns:xlink="http://www.w3.org/1999/xlink" xmlns="http://www.w3.org/2000/svg" version="1.1">
<style type="text/css">
	.st0{fill:#1C2A53;stroke:#000000;stroke-miterlimit:10;}
	.st1{fill:#27487F;}
	.st2{fill:#FFFFFF;}
	.st3{fill:#1A578C;}
	.st4{fill:#F5C71D;}
	.st5{fill:#19284A;}
	.st6{fill:#32497F;}
	.st7{fill:#E61E63;}
	.st8{fill:#3697D4;}
	.st9{fill:#4DB233;}
	.st10{fill:url(#SVGID_1_);}
	.st11{clip-path:url(#SVGID_3_);fill:#FFFFFF;}
	.st12{fill:#CD9E53;}
	.st13{fill:url(#SVGID_4_);}
</style>
<g id="图层_1">
	<rect height="2000" width="2000" class="st0"></rect>
	<path d="M238.93,473.55L62.3,296.92c-13.91-13.91-13.91-36.46,0-50.37L238.93,69.92c13.91-13.91,36.46-13.91,50.37,0
		l176.63,176.63c13.91,13.91,13.91,36.46,0,50.37L289.3,473.55C275.39,487.46,252.84,487.46,238.93,473.55z" class="st1"></path>
	<path d="M454.49,1273.56l-176.63-176.63c-13.91-13.91-13.91-36.46,0-50.37l176.63-176.63
		c13.91-13.91,36.46-13.91,50.37,0l176.63,176.63c13.91,13.91,13.91,36.46,0,50.37l-176.63,176.63
		C490.96,1287.47,468.4,1287.47,454.49,1273.56z" class="st2"></path>
	<path d="M207.42,1574.28L67.58,1434.44c-13.91-13.91-13.91-36.46,0-50.37l139.84-139.84
		c13.91-13.91,36.46-13.91,50.37,0l139.84,139.84c13.91,13.91,13.91,36.46,0,50.37l-139.84,139.84
		C243.88,1588.19,221.33,1588.19,207.42,1574.28z" class="st3"></path>
	<path d="M1769.79,1553.77l-108.33-108.33c-13.91-13.91-13.91-36.46,0-50.37l108.33-108.33
		c13.91-13.91,36.46-13.91,50.37,0l108.33,108.33c13.91,13.91,13.91,36.46,0,50.37l-108.33,108.33
		C1806.25,1567.68,1783.7,1567.68,1769.79,1553.77z" class="st4"></path>
	<path d="M1463.9,992l-293.08-293.08c-13.91-13.91-13.91-36.46,0-50.37l293.08-293.08c13.91-13.91,36.46-13.91,50.37,0
		l293.08,293.08c13.91,13.91,13.91,36.46,0,50.37L1514.27,992C1500.36,1005.91,1477.81,1005.91,1463.9,992z" class="st5"></path>
	<path d="M1492.82,1349.57l-181.1-181.1c-13.91-13.91-13.91-36.46,0-50.37l181.1-181.1c13.91-13.91,36.46-13.91,50.37,0
		l181.1,181.1c13.91,13.91,13.91,36.46,0,50.37l-181.1,181.1C1529.28,1363.48,1506.73,1363.48,1492.82,1349.57z" class="st6"></path>
	<path d="M816.28,636.74L567.21,387.68c-13.91-13.91-13.91-36.46,0-50.37L816.28,88.24c13.91-13.91,36.46-13.91,50.37,0
		l249.07,249.07c13.91,13.91,13.91,36.46,0,50.37L866.65,636.74C852.74,650.65,830.19,650.65,816.28,636.74z" class="st6"></path>
	<path d="M1324.74,272.4l-78.31-78.31c-13.91-13.91-13.91-36.46,0-50.37l78.31-78.31c13.91-13.91,36.46-13.91,50.37,0
		l78.31,78.31c13.91,13.91,13.91,36.46,0,50.37l-78.31,78.31C1361.21,286.31,1338.65,286.31,1324.74,272.4z" class="st7"></path>
	<path d="M1749.15,406.57l-155.72-155.72c-13.91-13.91-13.91-36.46,0-50.37l155.72-155.72
		c13.91-13.91,36.46-13.91,50.37,0l155.72,155.72c13.91,13.91,13.91,36.46,0,50.37l-155.72,155.72
		C1785.61,420.48,1763.06,420.48,1749.15,406.57z" class="st6"></path>
	<path d="M1818,1052.99l-78.02-78.02c-13.91-13.91-13.91-36.46,0-50.37l78.02-78.02c13.91-13.91,36.46-13.91,50.37,0
		l78.02,78.02c13.91,13.91,13.91,36.46,0,50.37l-78.02,78.02C1854.47,1066.9,1831.91,1066.9,1818,1052.99z" class="st8"></path>
	<path d="M130.6,951.88l-81.95-81.95c-13.91-13.91-13.91-36.46,0-50.37l81.95-81.95c13.91-13.91,36.46-13.91,50.37,0
		l81.95,81.95c13.91,13.91,13.91,36.46,0,50.37l-81.95,81.95C167.06,965.79,144.51,965.79,130.6,951.88z" class="st9"></path>
</g>
<g id="图层_3">
	
		<radialGradient gradientUnits="userSpaceOnUse" gradientTransform="matrix(-0.962 0.2731 -0.1691 -0.5955 3143.572 2434.6829)" fy="1534.0015" fx="-68.6965" r="1536.92" cy="1774.0458" cx="1449.3621" id="SVGID_1_">
		<stop style="stop-color:#2FAEE5" offset="0.5135"></stop>
		<stop style="stop-color:#1B69B4" offset="0.7156"></stop>
		<stop style="stop-color:#1A489D" offset="1"></stop>
	</radialGradient>
	<path d="M1907.84,1885.32c-68.83-228.72-338.37-410.67-684.42-465.06c0.77,7.58,1.17,15.28,1.17,23.06
		c0,124.17-101.52,225.18-225.69,224.59c-123.53-0.6-223.48-100.92-223.48-224.58c0-6.99,0.34-13.9,0.96-20.73
		c-339.26,57.14-602.38,237.34-670.12,463.01c-17.22,57.37,25.91,115.1,85.81,115.1h1630.04
		C1882.14,2000.71,1925.13,1942.8,1907.84,1885.32z" class="st10"></path>
</g>
<g id="图层_2">
	<g>
		<defs>
			<path d="M1223.42,1420.26c0.77,7.58,1.17,15.28,1.17,23.07c0,124.04-100.55,224.59-224.59,224.59
				s-224.59-100.55-224.59-224.59c0-6.99,0.34-13.9,0.96-20.73c-395.25,66.57-687.15,300.16-687.15,578.11
				c0,329.79,410.94,597.14,917.87,597.14s917.87-267.35,917.87-597.14C1924.96,1719.4,1625.95,1483.52,1223.42,1420.26z" id="SVGID_2_"></path>
		</defs>
		<clipPath id="SVGID_3_">
			<use style="overflow:visible;" xlink:href="#SVGID_2_"></use>
		</clipPath>
		<circle r="302.53" cy="1443.32" cx="1000" class="st11"></circle>
	</g>
	<circle r="224.59" cy="1443.32" cx="1000" class="st12"></circle>
	<g>
		<radialGradient gradientUnits="userSpaceOnUse" r="1231.1097" cy="689.3506" cx="1310.3287" id="SVGID_4_">
			<stop style="stop-color:#FBEABD" offset="0"></stop>
			<stop style="stop-color:#F4A021" offset="1"></stop>
		</radialGradient>
		<path d="M1600.1,289.35l-170.13,63.83c-27.62,10.36-58.57,7.25-83.37-8.71
			c-103.06-66.35-225.87-104.67-357.66-104.22c-361.86,1.26-655,295.47-655,657.34c0,360.92,290.88,653.91,651.01,657.31
			c364.07,3.44,662.74-291.5,663.67-655.59c0.22-86.64-16.32-169.39-46.57-245.2c-8.7-21.81-9.07-46.05-0.83-68.03l80.65-214.97
			C1701.03,320.06,1651.16,270.19,1600.1,289.35z" class="st13"></path>
		<g>
			<circle r="81.98" cy="755.71" cx="706.68" class="st0"></circle>
			<circle r="81.98" cy="755.71" cx="1290.65" class="st0"></circle>
		</g>
		<path d="M691.13,1025c-36.54,0-56.85,42.14-34.22,70.82c79.69,100.96,203.15,165.76,341.75,165.76
			s262.07-64.8,341.75-165.76c22.64-28.68,2.32-70.82-34.22-70.82H691.13z" class="st0"></path>
	</g>
</g>
</svg>
