<?xml version="1.0" standalone="no"?><!DOCTYPE svg PUBLIC "-//W3C//DTD SVG 1.1//EN" "http://www.w3.org/Graphics/SVG/1.1/DTD/svg11.dtd"><svg t="1685416334974" class="icon" viewBox="0 0 1024 1024" version="1.1" xmlns="http://www.w3.org/2000/svg" p-id="1848" xmlns:xlink="http://www.w3.org/1999/xlink" width="200" height="200"><path d="M451.062133 421.010892l0.090312-0.090312c-31.022093-32.850906-30.547956-84.576972 1.603034-116.727962 0.564449-0.564449 1.151475-1.106319 1.738502-1.64819l-0.045156-0.045156-115.847423 115.847423-118.534197-118.534198-0.045156 0.045156c-32.850906-31.044671-84.622128-30.5028-116.773118 1.64819-32.15099 32.15099-32.692861 83.94479-1.64819 116.773118l-0.045156 0.045156 177.778718 177.778718c31.834899 31.834899 82.883627 32.692861 115.779689 2.619042l0.067734 0.067734 116.818274-116.818274-60.937867-60.960445z" fill="#172A88" p-id="1849"></path><path d="M920.773647 306.856815c-32.15099-32.15099-83.899634-32.647705-116.727962-1.603034l-0.090312-0.090311-115.847422 115.847422-118.534198-118.534198-0.090312 0.090312c-32.850906-31.022093-84.576972-30.547956-116.727962 1.603034-32.15099 32.15099-32.647705 83.899634-1.603034 116.727962l-0.090312 0.090312 118.534198 118.534198-116.818274 116.818274 0.135468 0.135467c-30.073819 32.896062-29.283591 83.877056 2.551307 115.711955 31.834899 31.834899 82.815893 32.602549 115.711955 2.551308l0.135468 0.135467 173.398597-173.398597 4.380121-4.380121 173.398598-173.398598-0.090312-0.090312c31.022093-32.850906 30.525378-84.576972-1.625612-116.75054z" fill="#13AE67" p-id="1850"></path></svg>