<?xml version="1.0" encoding="utf-8"?>
<!-- Generator: Adobe Illustrator 23.0.0, SVG Export Plug-In . SVG Version: 6.00 Build 0)  -->
<svg version="1.0" xmlns="http://www.w3.org/2000/svg" xmlns:xlink="http://www.w3.org/1999/xlink" x="0px" y="0px"
	 viewBox="0 0 2000 2000" style="enable-background:new 0 0 2000 2000;" xml:space="preserve">
<style type="text/css">
	.st0{fill:#6A69AE;}
	.st1{clip-path:url(#SVGID_2_);}
	.st2{fill:#D7AF76;}
	.st3{fill:url(#SVGID_3_);}
	.st4{fill:#9A1E23;}
	.st5{fill:#FFFFFF;}
	.st6{fill:#E1BF86;}
	.st7{fill:url(#SVGID_4_);}
	.st8{fill:#252535;}
	.st9{fill:#570E18;}
</style>
<g id="图层_1">
	<rect class="st0" width="2000" height="2000"/>
</g>
<g id="图层_4">
</g>
<g id="图层_3">
	<g>
		<defs>
			<rect id="SVGID_1_" width="2000" height="2000"/>
		</defs>
		<clipPath id="SVGID_2_">
			<use xlink:href="#SVGID_1_"  style="overflow:visible;"/>
		</clipPath>
		<g class="st1">
			<path class="st2" d="M1867.59,1915.69c-178.15-149.04-496.93-83.58-580.51-237.14c-83.58-153.56-43.07-365.83-43.07-365.83
				l-242.46-88.07l-242.46,88.07c0,0,24.19,212.27-59.38,365.83c-83.58,153.56-411.28,88.1-589.43,237.14
				s-184.75,277.78-184.75,277.78h1076.02h1076.02C2077.58,2193.47,2045.74,2064.73,1867.59,1915.69z"/>
			
				<radialGradient id="SVGID_3_" cx="1820.8992" cy="1914.9099" r="1213.2778" fx="2022.9124" fy="1736.5792" gradientTransform="matrix(0.018 0.9998 -0.4854 8.728256e-03 2717.6267 77.5912)" gradientUnits="userSpaceOnUse">
				<stop  offset="0" style="stop-color:#FFFFFF"/>
				<stop  offset="0.7617" style="stop-color:#E8E9E9"/>
			</radialGradient>
			<path class="st3" d="M2000,1897.62c-145.93-185.4-620.06-65.51-705.87-219.07c-9.51-17.02-25.57-58.68-31.61-76.78
				l-269.92,104.06l-269.92-104.06c-6.04,18.1-22.1,59.75-31.61,76.78c-85.81,153.56-595.91,46.5-708.64,253.78
				c-68.58,126.11-86.24,261.14-86.24,261.14H984.22h16.75h1088.04C2089.01,2193.47,2097.81,2021.89,2000,1897.62z"/>
			<polygon class="st4" points="1147.65,1890.21 1246.57,1817.35 1148.96,1637.91 993.09,1724.61 837.22,1637.91 739.62,1817.35 
				838.53,1890.21 891.02,1935.54 804.84,2193.42 993.09,2193.47 1181.35,2193.42 1095.17,1935.54 			"/>
			<path class="st5" d="M802.02,1935.54l190.57-229.71L740.88,1570.6c-6.04,18.1-60.4,121.54-217.36,201.69l252.08,165.19
				C790.79,1947.32,789.65,1948.75,802.02,1935.54z"/>
			<path class="st5" d="M1214.21,1946.76l-221.62-240.93l255.38-135.24c6.04,18.1,106.27,138.47,215.46,201.3l-216.87,173.89
				C1231.38,1955.63,1226.58,1959.97,1214.21,1946.76z"/>
			<g>
				<g>
					<path class="st6" d="M505.83,813.81c0,0-21.08-33.8-60.39-16.6c-39.31,17.2-19.65,108.1,0,144.95
						c19.65,36.85,15.58,73.71,18.85,95.82c3.27,22.11,5.61,81.08,31.46,98.27c25.85,17.2,94.64,29.48,94.64-19.65
						C590.4,1067.46,505.83,813.81,505.83,813.81z"/>
					<path class="st6" d="M1488.99,813.81c0,0,21.08-33.8,60.39-16.6c39.31,17.2,19.65,108.1,0,144.95
						c-19.65,36.85-15.58,73.71-18.85,95.82c-3.27,22.11-5.61,81.08-31.46,98.27c-25.85,17.2-94.64,29.48-94.64-19.65
						C1404.42,1067.46,1488.99,813.81,1488.99,813.81z"/>
				</g>
				
					<radialGradient id="SVGID_4_" cx="1157.1307" cy="991.5482" r="1431.6257" fx="888.9408" fy="774.9818" gradientTransform="matrix(-8.031869e-03 1 -0.5552 -4.459142e-03 1716.8956 -161.1238)" gradientUnits="userSpaceOnUse">
					<stop  offset="0.1447" style="stop-color:#FBE1A9"/>
					<stop  offset="0.3176" style="stop-color:#F9DEA5"/>
					<stop  offset="1" style="stop-color:#D5A86D"/>
				</radialGradient>
				<path class="st7" d="M1001.28,207.57c-291.25,0-505.53,133.95-505.53,510.34c0,55.5,15.86,113.18,19.18,171.18
					c3.71,64.91,14.49,178.93,25.12,236.49c15.4,83.37,94.68,178.7,138.8,246.54c82.77,127.29,163.47,198.48,322.43,198.48
					c152.64,0,245.25-87.38,328.63-208.31c50.03-72.56,117.94-153.77,134.1-245.02c9.75-55.06,20.1-166.58,23.63-228.47
					c3.3-57.9,19.16-115.48,19.16-170.89C1506.8,341.51,1292.53,207.57,1001.28,207.57z"/>
				<path class="st8" d="M506.03,813.81l44.48-53.46c0,0,51.79-297.28,94.39-312.02s283.16,49.14,448.54,24.57
					c165.38-24.57,248.08-68.35,300.7-26.81c52.62,41.55,80.72,270.03,80.72,270.03v58.96l23.42,28.45
					c0,0,47.83-210.26-21.55-459.04c-37.33-133.88-140.23-156.6-140.23-156.6s41.74-68.79,86.02-56.51
					c44.28,12.28-220.23-73.71-409.97-14.74s-372.67,61.42-430.3,167.07c-57.63,105.64-99.96,255.51-99.96,319.39
					S506.03,813.81,506.03,813.81z"/>
			</g>
			<path class="st9" d="M891.02,1935.54c0,0,33.2-23.53,101.57-19.85c68.37,3.68,102.57,19.85,102.57,19.85l23.44-20.24
				c0,0-67.55-29.7-126.01-28.67c-58.46,1.03-124.56,29.06-124.56,29.06L891.02,1935.54z"/>
		</g>
	</g>
</g>
</svg>
