<svg height="1024" node-id="1" sillyvg="true" template-height="1024" template-width="1024" version="1.1" viewBox="0 0 1024 1024" width="1024" xmlns="http://www.w3.org/2000/svg" xmlns:xlink="http://www.w3.org/1999/xlink"><defs node-id="31"></defs><path d="M 481.10 156.90 L 467.30 157.10 L 453.70 157.80 L 440.30 159.00 L 427.10 160.50 L 414.00 162.50 L 401.10 165.00 L 385.60 168.50 L 370.40 172.50 L 355.50 177.20 L 340.90 182.30 L 326.60 188.10 L 312.40 194.40 L 298.60 201.20 L 285.10 208.60 L 272.00 216.40 L 259.10 224.70 L 246.60 233.50 L 234.50 242.80 L 222.70 252.50 L 211.40 262.60 L 200.40 273.20 L 189.80 284.20 L 179.60 295.50 L 170.00 307.30 L 160.70 319.40 L 151.90 331.90 L 143.60 344.80 L 135.70 357.90 L 128.40 371.40 L 121.60 385.20 L 115.30 399.40 L 109.50 413.70 L 104.30 428.30 L 99.70 443.20 L 95.60 458.40 L 92.10 473.90 L 89.70 486.80 L 87.70 499.90 L 86.10 513.10 L 85.00 526.60 L 84.30 540.10 L 84.10 553.90 L 84.30 567.70 L 85.00 581.30 L 86.10 594.70 L 87.70 607.90 L 89.70 621.00 L 92.10 633.90 L 95.60 649.40 L 99.70 664.60 L 104.30 679.50 L 109.50 694.10 L 115.30 708.50 L 121.60 722.60 L 128.40 736.40 L 135.70 749.90 L 143.60 763.10 L 151.90 775.90 L 160.70 788.40 L 170.00 800.60 L 179.60 812.30 L 189.80 823.70 L 200.40 834.70 L 211.40 845.20 L 222.70 855.40 L 234.50 865.10 L 246.60 874.30 L 259.10 883.10 L 272.00 891.50 L 285.10 899.30 L 298.60 906.60 L 312.40 913.40 L 326.60 919.70 L 340.90 925.50 L 355.50 930.70 L 370.40 935.30 L 385.60 939.40 L 401.10 942.90 L 414.00 945.30 L 427.10 947.30 L 440.30 948.90 L 453.70 950.00 L 467.30 950.70 L 481.10 951.00 L 494.90 950.70 L 508.50 950.00 L 521.90 948.90 L 535.10 947.30 L 548.20 945.30 L 561.10 942.90 L 576.60 939.40 L 591.80 935.30 L 606.70 930.70 L 621.30 925.50 L 635.60 919.70 L 649.80 913.40 L 663.60 906.60 L 677.10 899.30 L 690.20 891.50 L 703.10 883.10 L 715.60 874.30 L 727.70 865.10 L 739.50 855.40 L 750.80 845.20 L 761.80 834.70 L 772.40 823.70 L 782.60 812.30 L 792.20 800.60 L 801.50 788.40 L 810.30 775.90 L 818.60 763.10 L 826.50 749.90 L 833.80 736.40 L 840.60 722.60 L 846.90 708.50 L 852.70 694.10 L 857.90 679.50 L 862.50 664.60 L 866.60 649.40 L 870.10 633.90 L 872.50 621.00 L 874.50 607.90 L 876.10 594.70 L 877.20 581.30 L 877.90 567.70 L 878.10 553.90 L 877.90 540.10 L 877.20 526.60 L 876.10 513.10 L 874.50 499.90 L 872.50 486.80 L 870.10 473.90 L 866.60 458.40 L 862.50 443.20 L 857.90 428.30 L 852.70 413.70 L 846.90 399.40 L 840.60 385.20 L 833.80 371.40 L 826.50 357.90 L 818.60 344.80 L 810.30 331.90 L 801.50 319.40 L 792.20 307.30 L 782.60 295.50 L 772.40 284.20 L 761.80 273.20 L 750.80 262.60 L 739.50 252.50 L 727.70 242.80 L 715.60 233.50 L 703.10 224.70 L 690.20 216.40 L 677.10 208.60 L 663.60 201.20 L 649.80 194.40 L 635.60 188.10 L 621.30 182.30 L 606.70 177.20 L 591.80 172.50 L 576.60 168.50 L 561.10 165.00 L 548.20 162.50 L 535.10 160.50 L 521.90 159.00 L 508.50 157.80 L 494.90 157.10 L 481.10 156.90 Z M 315.80 397.60 L 544.30 499.80 L 646.40 728.30 L 417.90 626.10 L 315.80 397.60 Z" fill="#9777c3" fill-rule="nonzero" node-id="35" stroke="none" target-height="794.1" target-width="794" target-x="84.1" target-y="156.9"/><path d="M 682.10 298.70 L 671.60 290.80 L 660.80 283.30 L 649.60 276.20 L 638.10 269.50 L 626.40 263.30 L 614.30 257.60 L 602.00 252.40 L 589.40 247.60 L 576.60 243.40 L 563.60 239.70 L 550.30 236.50 L 536.80 233.80 L 523.20 231.80 L 509.40 230.30 L 495.40 229.40 L 481.10 229.10 L 467.60 229.40 L 454.30 230.20 L 441.20 231.50 L 428.30 233.30 L 415.60 235.70 L 403.00 238.50 L 390.50 241.90 L 378.40 245.70 L 366.40 249.90 L 354.70 254.60 L 343.10 259.80 L 331.80 265.40 L 320.80 271.40 L 310.00 277.80 L 299.50 284.60 L 289.20 291.80 L 279.30 299.40 L 269.70 307.30 L 260.40 315.60 L 251.40 324.20 L 242.70 333.20 L 234.50 342.50 L 226.50 352.10 L 219.00 362.10 L 211.70 372.30 L 204.90 382.80 L 198.50 393.60 L 192.50 404.60 L 187.00 415.90 L 181.80 427.50 L 177.10 439.20 L 172.80 451.20 L 169.10 463.40 L 165.70 475.80 L 162.90 488.50 L 160.50 501.20 L 158.70 514.00 L 157.40 527.10 L 156.50 540.40 L 156.30 553.90 L 156.60 568.20 L 157.50 582.20 L 159.00 596.00 L 161.00 609.60 L 163.70 623.20 L 166.90 636.40 L 170.60 649.40 L 174.80 662.20 L 179.50 674.80 L 184.80 687.20 L 190.50 699.20 L 196.70 710.90 L 203.40 722.40 L 210.50 733.60 L 218.00 744.40 L 225.90 755.00 L 236.40 762.90 L 247.30 770.40 L 258.40 777.50 L 269.90 784.20 L 281.70 790.40 L 293.70 796.10 L 306.00 801.30 L 318.70 806.10 L 331.40 810.30 L 344.40 814.00 L 357.70 817.20 L 371.30 819.90 L 384.90 821.90 L 398.70 823.40 L 412.70 824.30 L 427.00 824.60 L 440.50 824.30 L 453.80 823.50 L 466.80 822.20 L 479.70 820.40 L 492.40 818.00 L 505.10 815.20 L 517.50 811.80 L 529.70 808.00 L 541.70 803.80 L 553.40 799.10 L 565.00 793.90 L 576.30 788.30 L 587.30 782.30 L 598.10 775.90 L 608.60 769.10 L 618.80 761.90 L 628.70 754.30 L 638.40 746.40 L 647.70 738.10 L 656.70 729.50 L 665.30 720.50 L 673.60 711.20 L 681.50 701.60 L 689.10 691.60 L 696.30 681.40 L 703.10 670.90 L 709.50 660.10 L 715.50 649.10 L 721.10 637.80 L 726.30 626.20 L 731.00 614.50 L 735.20 602.50 L 739.00 590.30 L 742.30 577.90 L 745.20 565.20 L 747.50 552.50 L 749.40 539.70 L 750.70 526.60 L 751.50 513.30 L 751.80 499.80 L 751.50 485.50 L 750.60 471.50 L 749.10 457.70 L 747.00 444.10 L 744.40 430.50 L 741.20 417.30 L 737.50 404.30 L 733.30 391.50 L 728.50 378.90 L 723.30 366.50 L 717.60 354.50 L 711.40 342.80 L 704.70 331.30 L 697.60 320.10 L 690.10 309.30 L 682.10 298.70 Z M 417.90 626.10 L 315.80 397.60 L 506.90 483.00 L 544.30 499.80 L 646.40 728.30 L 417.90 626.10 Z" fill="#aee6f5" fill-rule="nonzero" node-id="37" stroke="none" target-height="595.5" target-width="595.5" target-x="156.3" target-y="229.1"/><path d="M 806.00 553.90 L 805.70 567.40 L 804.90 580.70 L 803.50 593.80 L 801.70 606.70 L 799.30 619.40 L 796.50 632.10 L 793.20 644.50 L 789.40 656.70 L 785.10 668.60 L 780.40 680.40 L 775.20 691.90 L 769.70 703.20 L 763.70 714.30 L 757.30 725.00 L 750.50 735.50 L 743.20 745.80 L 735.70 755.70 L 727.70 765.30 L 719.50 774.60 L 710.80 783.60 L 701.80 792.30 L 692.50 800.60 L 682.90 808.50 L 673.00 816.10 L 662.70 823.30 L 652.20 830.10 L 641.50 836.50 L 630.40 842.50 L 619.10 848.10 L 607.50 853.20 L 595.80 857.90 L 583.80 862.20 L 571.70 866.00 L 559.20 869.30 L 546.60 872.20 L 533.90 874.50 L 521.00 876.30 L 507.90 877.70 L 494.60 878.50 L 481.10 878.80 L 468.70 878.50 L 456.40 877.80 L 444.30 876.70 L 432.40 875.10 L 420.60 873.10 L 408.80 870.70 L 397.30 867.80 L 385.90 864.60 L 374.70 860.90 L 363.80 856.90 L 352.90 852.50 L 342.30 847.70 L 331.90 842.50 L 321.70 837.00 L 311.70 831.10 L 299.50 823.30 L 287.80 815.00 L 276.40 806.10 L 265.40 796.80 L 254.80 787.00 L 244.80 776.80 L 235.10 766.10 L 225.90 755.00 L 236.40 762.90 L 247.30 770.40 L 258.50 777.50 L 270.00 784.20 L 281.70 790.40 L 293.70 796.10 L 306.00 801.30 L 318.70 806.10 L 331.40 810.30 L 344.50 814.00 L 357.70 817.20 L 371.30 819.90 L 384.90 821.90 L 398.70 823.40 L 412.70 824.30 L 427.00 824.60 L 440.50 824.30 L 453.80 823.50 L 466.80 822.20 L 479.70 820.40 L 492.40 818.00 L 505.10 815.20 L 517.50 811.80 L 529.70 808.00 L 541.70 803.80 L 553.40 799.10 L 565.00 793.90 L 576.30 788.30 L 587.30 782.30 L 598.10 775.90 L 608.60 769.10 L 618.80 761.90 L 628.80 754.30 L 638.40 746.40 L 647.70 738.10 L 656.70 729.50 L 665.30 720.50 L 673.60 711.20 L 681.50 701.60 L 689.10 691.60 L 696.30 681.40 L 703.10 670.90 L 709.50 660.10 L 715.50 649.10 L 721.10 637.80 L 726.30 626.20 L 731.00 614.50 L 735.20 602.50 L 739.00 590.30 L 742.30 577.90 L 745.20 565.20 L 747.60 552.50 L 749.40 539.70 L 750.70 526.60 L 751.50 513.30 L 751.80 499.80 L 751.50 485.50 L 750.60 471.50 L 749.10 457.70 L 747.00 444.10 L 744.40 430.50 L 741.20 417.30 L 737.50 404.30 L 733.30 391.50 L 728.50 378.90 L 723.30 366.50 L 717.60 354.50 L 711.40 342.80 L 704.70 331.30 L 697.60 320.10 L 690.10 309.30 L 682.20 298.70 L 693.30 307.90 L 703.90 317.60 L 714.20 327.70 L 724.00 338.20 L 733.30 349.20 L 742.10 360.60 L 750.50 372.30 L 758.30 384.50 L 764.20 394.50 L 769.70 404.70 L 774.90 415.10 L 779.70 425.70 L 784.10 436.60 L 788.10 447.60 L 791.80 458.70 L 795.00 470.10 L 797.90 481.60 L 800.30 493.40 L 802.30 505.20 L 803.90 517.10 L 805.00 529.20 L 805.70 541.50 L 806.00 553.90 Z" fill="#35c1e6" fill-rule="nonzero" node-id="39" stroke="none" target-height="580.1" target-width="580.1" target-x="225.9" target-y="298.7"/><path d="M 544.30 499.80 L 417.90 626.10 L 315.80 397.60 Z" fill="#e96762" fill-rule="nonzero" node-id="41" stroke="none" target-height="228.49997" target-width="228.5" target-x="315.8" target-y="397.6"/><path d="M 646.40 728.30 L 417.90 626.10 L 544.30 499.80 Z" fill="#ffc764" fill-rule="nonzero" node-id="43" stroke="none" target-height="228.5" target-width="228.50003" target-x="417.9" target-y="499.8"/><g node-id="94"><path d="M 481.10 969.00 L 466.70 968.70 L 452.50 968.00 L 438.50 966.80 L 424.70 965.20 L 411.10 963.10 L 397.60 960.60 L 384.10 957.50 L 370.80 954.10 L 357.70 950.30 L 344.80 946.00 L 332.20 941.40 L 319.70 936.30 L 304.90 929.70 L 290.50 922.60 L 276.40 914.90 L 262.60 906.70 L 249.20 898.00 L 236.10 888.80 L 223.40 879.10 L 211.10 869.00 L 199.20 858.40 L 187.70 847.30 L 176.70 835.80 L 166.10 823.90 L 155.90 811.60 L 146.20 798.90 L 137.00 785.80 L 128.30 772.40 L 120.10 758.70 L 112.50 744.60 L 105.30 730.10 L 98.70 715.30 L 93.60 702.90 L 89.00 690.20 L 84.70 677.30 L 80.90 664.20 L 77.50 651.00 L 74.50 637.50 L 71.90 624.00 L 69.80 610.30 L 68.20 596.50 L 67.00 582.50 L 66.30 568.30 L 66.00 553.90 L 66.30 540.00 L 66.90 526.20 L 68.10 512.40 L 69.70 498.70 L 71.80 485.10 L 74.30 471.50 L 77.20 458.00 L 80.60 444.70 L 84.40 431.50 L 88.70 418.40 L 93.40 405.40 L 98.50 392.60 L 104.10 380.10 L 110.00 367.70 L 116.40 355.40 L 118.30 352.70 L 120.40 350.40 L 122.90 348.60 L 125.70 347.20 L 128.60 346.40 L 131.70 346.00 L 134.80 346.20 L 137.80 346.90 L 140.90 348.20 L 143.60 350.10 L 145.90 352.20 L 147.70 354.70 L 149.10 357.50 L 149.90 360.40 L 150.30 363.50 L 150.10 366.60 L 149.40 369.70 L 136.80 395.20 L 131.80 406.70 L 127.10 418.30 L 122.80 430.20 L 118.90 442.10 L 115.40 454.20 L 112.30 466.40 L 109.60 478.70 L 107.40 491.10 L 105.50 503.50 L 104.00 516.00 L 103.00 528.60 L 102.30 541.20 L 102.10 553.90 L 102.50 569.70 L 103.40 585.10 L 104.90 600.40 L 107.10 615.40 L 109.80 630.20 L 113.20 645.00 L 117.10 659.50 L 121.50 673.70 L 126.50 687.60 L 131.90 701.30 L 138.00 714.80 L 144.50 728.00 L 151.50 740.90 L 159.00 753.40 L 166.90 765.70 L 175.40 777.60 L 184.20 789.20 L 193.50 800.40 L 203.10 811.30 L 213.20 821.80 L 223.70 831.90 L 234.60 841.60 L 245.80 850.80 L 257.40 859.70 L 269.40 868.10 L 281.60 876.00 L 294.20 883.50 L 307.00 890.50 L 320.20 897.00 L 333.70 903.10 L 347.40 908.60 L 361.40 913.50 L 375.60 917.90 L 390.10 921.80 L 404.80 925.20 L 419.60 927.90 L 434.60 930.10 L 449.90 931.60 L 465.40 932.60 L 481.10 932.90 L 496.80 932.60 L 512.30 931.60 L 527.60 930.10 L 542.60 927.90 L 557.40 925.20 L 572.10 921.80 L 586.60 917.90 L 600.80 913.50 L 614.80 908.60 L 628.50 903.10 L 642.00 897.00 L 655.20 890.50 L 668.00 883.50 L 680.60 876.00 L 692.80 868.10 L 704.80 859.70 L 716.40 850.80 L 727.60 841.60 L 738.50 831.90 L 749.00 821.80 L 759.10 811.30 L 768.70 800.40 L 778.00 789.20 L 786.80 777.60 L 795.30 765.70 L 803.20 753.40 L 810.70 740.90 L 817.70 728.00 L 824.20 714.80 L 830.30 701.30 L 835.80 687.60 L 840.70 673.70 L 845.10 659.50 L 849.00 645.00 L 852.40 630.20 L 855.10 615.40 L 857.30 600.40 L 858.80 585.10 L 859.80 569.70 L 860.10 553.90 L 859.80 538.20 L 858.80 522.70 L 857.30 507.50 L 855.10 492.40 L 852.40 477.60 L 849.00 462.90 L 845.10 448.40 L 840.70 434.20 L 835.80 420.20 L 830.30 406.50 L 824.20 393.00 L 817.70 379.80 L 810.70 367.00 L 803.20 354.40 L 795.30 342.20 L 786.80 330.20 L 778.00 318.60 L 768.80 307.40 L 759.10 296.60 L 749.00 286.10 L 738.50 276.00 L 727.60 266.30 L 716.40 257.00 L 704.80 248.20 L 692.90 239.70 L 680.60 231.80 L 668.00 224.30 L 655.20 217.30 L 642.00 210.80 L 628.50 204.80 L 614.80 199.30 L 600.80 194.30 L 586.60 189.90 L 572.20 186.00 L 557.40 182.70 L 542.60 179.90 L 527.60 177.80 L 512.30 176.20 L 496.80 175.30 L 481.10 174.90 L 467.30 175.20 L 453.50 175.90 L 440.00 177.10 L 426.50 178.80 L 413.20 181.00 L 399.90 183.70 L 386.70 186.80 L 373.80 190.30 L 361.00 194.30 L 348.30 198.80 L 335.80 203.70 L 323.60 209.10 L 311.50 214.90 L 299.60 221.10 L 287.90 227.70 L 276.50 234.80 L 265.40 242.20 L 254.40 250.10 L 243.80 258.30 L 233.30 267.10 L 223.20 276.10 L 213.40 285.50 L 203.90 295.30 L 194.70 305.60 L 185.80 316.20 L 183.50 318.60 L 181.00 320.40 L 178.20 321.80 L 175.20 322.60 L 172.20 322.90 L 169.10 322.70 L 166.10 322.00 L 163.20 320.80 L 160.40 318.90 L 158.10 316.60 L 156.20 314.10 L 154.90 311.30 L 154.10 308.30 L 153.70 305.30 L 153.90 302.20 L 154.60 299.20 L 155.90 296.30 L 157.70 293.50 L 167.50 281.90 L 177.60 270.70 L 188.00 259.90 L 198.70 249.60 L 209.80 239.70 L 221.20 230.20 L 232.90 221.10 L 244.80 212.50 L 257.10 204.30 L 269.60 196.60 L 282.30 189.30 L 295.30 182.50 L 308.60 176.20 L 322.00 170.40 L 335.70 165.00 L 349.50 160.10 L 363.60 155.70 L 377.70 151.80 L 392.10 148.40 L 406.70 145.50 L 421.30 143.10 L 436.00 141.30 L 450.90 139.90 L 465.90 139.10 L 481.10 138.90 L 495.50 139.10 L 509.70 139.80 L 523.70 141.00 L 537.50 142.70 L 551.10 144.80 L 564.60 147.30 L 578.10 150.30 L 591.40 153.70 L 604.50 157.60 L 617.40 161.80 L 630.00 166.50 L 642.50 171.50 L 657.30 178.10 L 671.70 185.30 L 685.80 192.90 L 699.60 201.10 L 713.00 209.80 L 726.10 219.10 L 738.80 228.80 L 751.10 238.90 L 763.00 249.50 L 774.50 260.60 L 785.50 272.10 L 796.10 284.00 L 806.30 296.20 L 816.00 308.90 L 825.20 322.00 L 833.90 335.40 L 842.10 349.20 L 849.70 363.30 L 856.90 377.70 L 863.50 392.50 L 868.60 405.00 L 873.20 417.70 L 877.40 430.50 L 881.30 443.60 L 884.70 456.90 L 887.70 470.40 L 890.30 483.90 L 892.40 497.50 L 894.00 511.40 L 895.20 525.40 L 895.90 539.50 L 896.20 553.90 L 895.90 568.30 L 895.20 582.50 L 894.00 596.50 L 892.40 610.30 L 890.30 624.00 L 887.70 637.50 L 884.70 651.00 L 881.30 664.30 L 877.40 677.30 L 873.20 690.20 L 868.60 702.90 L 863.50 715.30 L 856.90 730.10 L 849.70 744.60 L 842.10 758.70 L 833.90 772.40 L 825.20 785.80 L 816.00 798.90 L 806.30 811.60 L 796.10 823.90 L 785.50 835.80 L 774.50 847.30 L 763.00 858.40 L 751.10 869.00 L 738.80 879.10 L 726.10 888.80 L 713.00 898.00 L 699.60 906.70 L 685.80 914.90 L 671.70 922.60 L 657.30 929.70 L 642.50 936.30 L 630.00 941.40 L 617.40 946.00 L 604.50 950.30 L 591.40 954.10 L 578.10 957.50 L 564.60 960.60 L 551.10 963.10 L 537.50 965.20 L 523.70 966.80 L 509.70 968.00 L 495.50 968.70 L 481.10 969.00 Z" fill="#22104f" fill-rule="nonzero" group-id="1" node-id="47" stroke="none" target-height="830.1" target-width="830.2" target-x="66" target-y="138.9"/></g><g node-id="95"><path d="M 481.10 896.80 L 466.90 896.50 L 452.90 895.70 L 439.10 894.30 L 425.50 892.30 L 412.10 889.80 L 398.70 886.80 L 385.60 883.30 L 372.80 879.30 L 360.10 874.80 L 347.80 869.80 L 335.50 864.40 L 323.60 858.50 L 312.00 852.10 L 300.60 845.40 L 289.50 838.20 L 278.70 830.50 L 268.20 822.50 L 258.10 814.20 L 248.30 805.40 L 238.80 796.30 L 229.60 786.80 L 220.90 776.90 L 212.50 766.80 L 204.50 756.30 L 196.90 745.50 L 189.70 734.40 L 182.90 723.00 L 176.60 711.40 L 170.70 699.50 L 165.20 687.30 L 160.20 674.90 L 155.70 662.30 L 151.70 649.40 L 148.20 636.30 L 145.20 622.90 L 142.70 609.50 L 140.80 596.00 L 139.40 582.20 L 138.50 568.20 L 138.20 553.90 L 138.50 539.70 L 139.40 525.70 L 140.80 511.90 L 142.70 498.30 L 145.20 484.90 L 148.20 471.50 L 151.70 458.40 L 155.70 445.60 L 160.20 433.00 L 165.20 420.60 L 170.70 408.40 L 176.60 396.40 L 182.90 384.80 L 189.70 373.40 L 196.90 362.30 L 204.50 351.50 L 212.50 341.00 L 220.90 330.90 L 229.60 321.10 L 238.80 311.60 L 248.30 302.40 L 258.10 293.70 L 268.20 285.30 L 278.70 277.30 L 289.50 269.70 L 300.60 262.50 L 312.00 255.70 L 323.60 249.40 L 335.50 243.50 L 347.80 238.00 L 360.10 233.00 L 372.80 228.60 L 385.60 224.60 L 398.70 221.00 L 412.10 218.00 L 425.50 215.50 L 439.10 213.60 L 452.90 212.20 L 466.90 211.30 L 481.10 211.00 L 495.30 211.30 L 509.30 212.20 L 523.10 213.60 L 536.70 215.50 L 550.10 218.00 L 563.50 221.00 L 576.60 224.60 L 589.40 228.60 L 602.10 233.00 L 614.40 238.00 L 626.70 243.50 L 638.60 249.40 L 650.20 255.70 L 661.60 262.50 L 672.70 269.70 L 683.50 277.30 L 694.00 285.30 L 704.10 293.70 L 713.90 302.40 L 723.40 311.60 L 732.60 321.10 L 741.30 330.90 L 749.70 341.00 L 757.70 351.50 L 765.40 362.30 L 772.50 373.40 L 779.30 384.80 L 785.60 396.40 L 791.50 408.40 L 797.00 420.60 L 802.00 433.00 L 806.50 445.60 L 810.50 458.40 L 814.00 471.50 L 817.00 484.90 L 819.50 498.30 L 821.40 511.90 L 822.80 525.70 L 823.70 539.70 L 824.00 553.90 L 823.70 567.20 L 823.00 580.40 L 821.70 593.40 L 819.90 606.40 L 817.70 619.20 L 814.90 632.00 L 811.70 644.60 L 808.10 657.00 L 803.90 669.30 L 799.30 681.40 L 794.30 693.30 L 788.80 705.00 L 782.90 716.50 L 776.50 727.80 L 769.80 738.80 L 762.60 749.60 L 755.00 760.00 L 747.00 770.20 L 738.60 780.20 L 729.80 789.80 L 720.70 799.10 L 711.20 808.00 L 701.30 816.60 L 691.00 824.90 L 680.40 832.80 L 677.50 834.50 L 674.50 835.60 L 671.50 836.10 L 668.40 836.10 L 665.40 835.60 L 662.50 834.60 L 659.80 833.10 L 657.30 831.10 L 655.20 828.60 L 653.50 825.70 L 652.40 822.80 L 651.90 819.80 L 651.90 816.70 L 652.40 813.70 L 653.40 810.70 L 654.90 808.00 L 656.90 805.60 L 678.10 788.90 L 687.00 781.30 L 695.50 773.30 L 703.70 765.00 L 711.50 756.30 L 719.00 747.40 L 726.20 738.30 L 733.00 728.90 L 739.40 719.30 L 745.50 709.40 L 751.10 699.40 L 756.40 689.10 L 761.30 678.60 L 765.80 668.00 L 769.90 657.10 L 773.60 646.10 L 776.90 635.00 L 779.80 623.80 L 782.30 612.30 L 784.30 600.80 L 785.80 589.30 L 787.00 577.60 L 787.70 565.80 L 787.90 553.90 L 787.60 541.20 L 786.90 528.60 L 785.60 516.30 L 783.90 504.20 L 781.60 492.20 L 778.90 480.20 L 775.80 468.50 L 772.20 457.00 L 768.20 445.70 L 763.70 434.60 L 758.80 423.70 L 753.60 413.00 L 747.90 402.60 L 741.90 392.40 L 735.40 382.50 L 728.60 372.80 L 721.40 363.40 L 713.90 354.40 L 706.10 345.60 L 697.90 337.10 L 689.40 328.90 L 680.60 321.10 L 671.60 313.60 L 662.20 306.40 L 652.50 299.60 L 642.60 293.10 L 632.40 287.10 L 622.00 281.40 L 611.30 276.20 L 600.40 271.30 L 589.30 266.80 L 578.00 262.80 L 566.50 259.20 L 554.80 256.10 L 542.80 253.40 L 530.90 251.10 L 518.70 249.40 L 506.40 248.20 L 493.80 247.40 L 481.10 247.10 L 468.40 247.40 L 455.80 248.20 L 443.50 249.40 L 431.30 251.10 L 419.30 253.40 L 407.40 256.10 L 395.70 259.20 L 384.20 262.80 L 372.90 266.80 L 361.80 271.30 L 350.80 276.20 L 340.20 281.40 L 329.80 287.10 L 319.60 293.10 L 309.70 299.60 L 300.00 306.40 L 290.60 313.60 L 281.50 321.10 L 272.80 328.90 L 264.30 337.10 L 256.10 345.60 L 248.20 354.40 L 240.70 363.40 L 233.60 372.80 L 226.80 382.50 L 220.30 392.40 L 214.30 402.60 L 208.60 413.00 L 203.30 423.70 L 198.40 434.60 L 194.00 445.70 L 190.00 457.00 L 186.40 468.50 L 183.20 480.20 L 180.50 492.20 L 178.30 504.20 L 176.60 516.30 L 175.30 528.60 L 174.60 541.20 L 174.30 553.90 L 174.60 566.70 L 175.30 579.20 L 176.60 591.50 L 178.30 603.70 L 180.50 615.70 L 183.20 627.60 L 186.40 639.40 L 190.00 650.90 L 194.00 662.10 L 198.40 673.20 L 203.30 684.20 L 208.60 694.80 L 214.30 705.20 L 220.30 715.40 L 226.80 725.30 L 233.60 735.00 L 240.70 744.40 L 248.20 753.50 L 256.10 762.30 L 264.30 770.80 L 272.80 778.90 L 281.50 786.80 L 290.60 794.30 L 300.00 801.40 L 309.70 808.30 L 319.60 814.70 L 329.80 820.70 L 340.20 826.40 L 350.80 831.70 L 361.80 836.60 L 372.90 841.00 L 384.20 845.00 L 395.70 848.60 L 407.40 851.80 L 419.30 854.50 L 431.30 856.70 L 443.50 858.40 L 455.80 859.70 L 468.40 860.40 L 481.10 860.70 L 493.60 860.50 L 506.00 859.70 L 518.30 858.50 L 530.50 856.70 L 542.60 854.50 L 554.70 851.80 L 566.60 848.60 L 578.40 844.90 L 604.90 835.00 L 608.00 834.50 L 611.10 834.70 L 614.20 835.30 L 617.00 836.50 L 619.60 838.10 L 622.00 840.10 L 623.90 842.60 L 625.50 845.50 L 626.50 848.70 L 626.90 851.80 L 626.80 854.90 L 626.10 857.90 L 625.00 860.70 L 623.40 863.40 L 621.30 865.70 L 618.90 867.60 L 616.00 869.20 L 602.90 874.40 L 589.80 879.10 L 576.60 883.30 L 563.30 886.80 L 549.90 889.90 L 536.30 892.40 L 522.70 894.30 L 508.90 895.70 L 495.10 896.50 L 481.10 896.80 Z" fill="#22104f" fill-rule="nonzero" group-id="2" node-id="52" stroke="none" target-height="685.8" target-width="685.8" target-x="138.2" target-y="211"/></g><g node-id="96"><path d="M 860.10 283.20 L 852.60 283.00 L 845.30 282.20 L 838.30 281.00 L 831.30 279.30 L 824.50 277.20 L 817.90 274.70 L 811.60 271.80 L 805.50 268.40 L 799.60 264.70 L 794.00 260.60 L 788.60 256.20 L 783.60 251.50 L 778.80 246.40 L 774.40 241.10 L 770.30 235.50 L 766.60 229.60 L 763.30 223.40 L 760.30 217.10 L 757.80 210.50 L 755.70 203.70 L 754.00 196.80 L 752.80 189.70 L 752.10 182.40 L 751.80 174.90 L 752.10 167.50 L 752.80 160.20 L 754.00 153.10 L 755.70 146.20 L 757.80 139.40 L 760.30 132.80 L 763.30 126.50 L 766.60 120.30 L 770.30 114.40 L 774.40 108.80 L 778.80 103.50 L 783.60 98.40 L 788.60 93.70 L 794.00 89.30 L 799.60 85.20 L 805.50 81.50 L 811.60 78.10 L 817.90 75.20 L 824.50 72.70 L 831.30 70.50 L 838.30 68.90 L 845.30 67.70 L 852.60 66.90 L 860.10 66.70 L 867.60 66.90 L 874.80 67.70 L 881.90 68.90 L 888.80 70.50 L 895.70 72.70 L 902.20 75.20 L 908.60 78.10 L 914.70 81.50 L 920.60 85.20 L 926.20 89.30 L 931.60 93.70 L 936.60 98.40 L 941.40 103.50 L 945.80 108.80 L 949.80 114.40 L 953.60 120.30 L 956.90 126.50 L 959.80 132.80 L 962.40 139.40 L 964.50 146.20 L 966.20 153.10 L 967.40 160.20 L 968.10 167.50 L 968.40 174.90 L 968.10 182.40 L 967.40 189.70 L 966.20 196.80 L 964.50 203.70 L 962.40 210.50 L 959.80 217.10 L 956.90 223.40 L 953.60 229.60 L 949.80 235.50 L 945.80 241.10 L 941.40 246.40 L 936.60 251.50 L 931.60 256.20 L 926.20 260.60 L 920.60 264.70 L 914.70 268.40 L 908.60 271.80 L 902.20 274.70 L 895.70 277.20 L 888.80 279.30 L 881.90 281.00 L 874.80 282.20 L 867.60 283.00 L 860.10 283.20 Z M 860.10 102.80 L 854.10 103.00 L 848.30 103.70 L 842.70 104.90 L 837.30 106.40 L 832.00 108.50 L 826.90 110.80 L 822.10 113.60 L 817.50 116.70 L 813.10 120.20 L 809.10 123.90 L 805.30 128.00 L 801.80 132.30 L 798.70 136.90 L 796.00 141.80 L 793.60 146.80 L 791.60 152.10 L 790.00 157.60 L 788.90 163.20 L 788.20 169.00 L 787.90 174.90 L 788.20 180.90 L 788.90 186.70 L 790.00 192.30 L 791.60 197.70 L 793.60 203.00 L 796.00 208.10 L 798.70 212.90 L 801.80 217.50 L 805.30 221.90 L 809.10 226.00 L 813.10 229.70 L 817.50 233.20 L 822.10 236.30 L 826.90 239.00 L 832.00 241.40 L 837.30 243.40 L 842.70 245.00 L 848.30 246.20 L 854.10 246.90 L 860.10 247.10 L 866.10 246.90 L 871.90 246.20 L 877.40 245.00 L 882.90 243.40 L 888.20 241.40 L 893.30 239.00 L 898.10 236.30 L 902.70 233.20 L 907.10 229.70 L 911.10 226.00 L 914.90 221.90 L 918.30 217.50 L 921.50 212.90 L 924.20 208.10 L 926.60 203.00 L 928.60 197.70 L 930.20 192.30 L 931.30 186.70 L 932.00 180.90 L 932.30 174.90 L 932.00 169.00 L 931.30 163.20 L 930.20 157.60 L 928.60 152.10 L 926.60 146.80 L 924.20 141.80 L 921.50 136.90 L 918.30 132.30 L 914.90 128.00 L 911.10 123.90 L 907.10 120.20 L 902.70 116.70 L 898.10 113.60 L 893.30 110.80 L 888.20 108.50 L 882.90 106.40 L 877.40 104.90 L 871.90 103.70 L 866.10 103.00 L 860.10 102.80 Z" fill="#22104f" fill-rule="nonzero" group-id="3" node-id="57" stroke="none" target-height="216.50002" target-width="216.60004" target-x="751.8" target-y="66.7"/></g><g node-id="97"><path d="M 769.90 283.20 L 765.30 282.60 L 761.00 280.90 L 757.10 277.90 L 755.00 275.40 L 753.40 272.70 L 752.40 269.70 L 751.90 266.70 L 751.90 263.70 L 752.40 260.60 L 753.40 257.70 L 755.00 255.00 L 757.10 252.40 L 793.20 216.30 L 795.70 214.20 L 798.40 212.70 L 801.40 211.60 L 804.40 211.10 L 807.50 211.10 L 810.50 211.60 L 813.40 212.70 L 816.20 214.20 L 818.70 216.30 L 820.80 218.90 L 822.40 221.60 L 823.40 224.50 L 823.90 227.60 L 823.90 230.60 L 823.40 233.70 L 822.40 236.60 L 820.80 239.30 L 818.70 241.80 L 782.60 277.90 L 780.70 279.60 L 776.60 281.90 L 774.40 282.60 L 769.90 283.20 Z" fill="#22104f" fill-rule="nonzero" group-id="4" node-id="62" stroke="none" target-height="72.100006" target-width="72" target-x="751.9" target-y="211.1"/></g><g node-id="98"><path d="M 646.40 746.30 L 641.50 745.60 L 639.10 744.70 L 410.60 642.60 L 407.70 641.00 L 405.20 638.90 L 403.10 636.40 L 401.50 633.50 L 298.50 402.70 L 297.70 397.90 L 298.30 393.20 L 300.10 388.80 L 301.40 386.70 L 303.00 384.90 L 306.90 381.90 L 309.10 380.90 L 313.70 379.70 L 318.50 379.80 L 323.20 381.20 L 551.60 483.30 L 554.50 484.90 L 557.00 487.00 L 559.10 489.60 L 560.80 492.50 L 570.70 514.80 L 571.70 518.00 L 572.20 521.10 L 572.10 524.20 L 571.50 527.20 L 570.40 530.00 L 568.80 532.70 L 566.80 535.10 L 564.40 537.00 L 561.50 538.70 L 558.40 539.70 L 555.30 540.20 L 552.20 540.10 L 549.10 539.50 L 546.30 538.40 L 543.60 536.80 L 541.30 534.80 L 539.30 532.40 L 537.70 529.50 L 530.60 513.40 L 351.50 433.40 L 431.60 612.40 L 610.70 692.50 L 567.10 595.20 L 566.10 592.10 L 565.60 589.00 L 565.70 585.90 L 566.30 582.80 L 567.40 580.00 L 568.90 577.30 L 570.90 575.00 L 573.40 573.00 L 576.30 571.40 L 579.40 570.30 L 582.50 569.80 L 585.50 569.90 L 588.60 570.50 L 591.40 571.60 L 594.10 573.20 L 596.50 575.20 L 598.50 577.60 L 600.10 580.50 L 663.80 723.20 L 664.50 728.00 L 663.90 732.70 L 662.10 737.10 L 660.80 739.10 L 659.20 741.00 L 655.40 743.90 L 651.00 745.70 L 646.40 746.30 Z" fill="#22104f" fill-rule="nonzero" group-id="5" node-id="67" stroke="none" target-height="366.59998" target-width="366.8" target-x="297.7" target-y="379.7"/></g><g node-id="99"><path d="M 481.10 301.30 L 477.80 301.00 L 474.80 300.10 L 472.00 298.80 L 469.50 297.00 L 467.30 294.90 L 465.50 292.30 L 464.20 289.50 L 463.40 286.50 L 463.10 283.20 L 463.10 229.10 L 463.40 225.80 L 464.20 222.80 L 465.50 220.00 L 467.30 217.40 L 469.50 215.30 L 472.00 213.50 L 474.80 212.20 L 477.80 211.30 L 481.10 211.00 L 484.40 211.30 L 487.40 212.20 L 490.20 213.50 L 492.70 215.30 L 494.90 217.40 L 496.70 220.00 L 498.00 222.80 L 498.80 225.80 L 499.20 229.10 L 499.20 283.20 L 498.80 286.50 L 498.00 289.50 L 496.70 292.30 L 494.90 294.90 L 492.70 297.00 L 490.20 298.80 L 487.40 300.10 L 484.40 301.00 L 481.10 301.30 Z" fill="#22104f" fill-rule="nonzero" group-id="6" node-id="72" stroke="none" target-height="90.29999" target-width="36.100006" target-x="463.1" target-y="211"/></g><g node-id="100"><path d="M 481.10 896.80 L 477.80 896.50 L 474.80 895.70 L 472.00 894.30 L 469.50 892.60 L 467.30 890.40 L 465.50 887.90 L 464.20 885.10 L 463.40 882.10 L 463.10 878.80 L 463.10 824.60 L 463.40 821.30 L 464.20 818.30 L 465.50 815.50 L 467.30 813.00 L 469.50 810.80 L 472.00 809.00 L 474.80 807.70 L 477.80 806.90 L 481.10 806.60 L 484.40 806.90 L 487.40 807.70 L 490.20 809.00 L 492.70 810.80 L 494.90 813.00 L 496.70 815.50 L 498.00 818.30 L 498.80 821.30 L 499.20 824.60 L 499.20 878.80 L 498.80 882.10 L 498.00 885.10 L 496.70 887.90 L 494.90 890.40 L 492.70 892.60 L 490.20 894.30 L 487.40 895.70 L 484.40 896.50 L 481.10 896.80 Z" fill="#22104f" fill-rule="nonzero" group-id="7" node-id="77" stroke="none" target-height="90.20001" target-width="36.100006" target-x="463.1" target-y="806.6"/></g><g node-id="101"><path d="M 210.40 572.00 L 156.30 572.00 L 153.00 571.70 L 149.90 570.80 L 147.10 569.50 L 144.60 567.70 L 142.50 565.60 L 140.70 563.00 L 139.30 560.20 L 138.50 557.20 L 138.20 553.90 L 138.50 550.60 L 139.30 547.60 L 140.70 544.80 L 142.50 542.30 L 144.60 540.10 L 147.10 538.30 L 149.90 537.00 L 153.00 536.20 L 156.30 535.90 L 210.40 535.90 L 213.70 536.20 L 216.70 537.00 L 219.50 538.30 L 222.00 540.10 L 224.20 542.30 L 226.00 544.80 L 227.30 547.60 L 228.10 550.60 L 228.50 553.90 L 228.10 557.20 L 227.30 560.20 L 226.00 563.00 L 224.20 565.60 L 222.00 567.70 L 219.50 569.50 L 216.70 570.80 L 213.70 571.70 L 210.40 572.00 Z" fill="#22104f" fill-rule="nonzero" group-id="8" node-id="82" stroke="none" target-height="36.099976" target-width="90.3" target-x="138.2" target-y="535.9"/></g><g node-id="102"><path d="M 806.00 572.00 L 751.80 572.00 L 748.50 571.70 L 745.50 570.80 L 742.70 569.50 L 740.20 567.70 L 738.00 565.60 L 736.20 563.00 L 734.90 560.20 L 734.10 557.20 L 733.80 553.90 L 734.10 550.60 L 734.90 547.60 L 736.20 544.80 L 738.00 542.30 L 740.20 540.10 L 742.70 538.30 L 745.50 537.00 L 748.50 536.20 L 751.80 535.90 L 806.00 535.90 L 809.20 536.20 L 812.30 537.00 L 815.10 538.30 L 817.60 540.10 L 819.70 542.30 L 821.50 544.80 L 822.90 547.60 L 823.70 550.60 L 824.00 553.90 L 823.70 557.20 L 822.90 560.20 L 821.50 563.00 L 819.70 565.60 L 817.60 567.70 L 815.10 569.50 L 812.30 570.80 L 809.20 571.70 L 806.00 572.00 Z" fill="#22104f" fill-rule="nonzero" group-id="9" node-id="87" stroke="none" target-height="36.099976" target-width="90.20001" target-x="733.8" target-y="535.9"/></g><path d="M 417.90 644.20 L 413.40 643.60 L 409.00 641.80 L 405.20 638.90 L 403.10 636.30 L 401.50 633.60 L 400.50 630.70 L 400.00 627.60 L 400.00 624.60 L 400.50 621.50 L 401.50 618.60 L 403.10 615.90 L 405.20 613.40 L 531.50 487.00 L 534.10 484.90 L 536.80 483.40 L 539.70 482.30 L 542.80 481.80 L 545.80 481.80 L 548.80 482.30 L 551.80 483.40 L 554.50 484.90 L 557.00 487.00 L 559.10 489.60 L 560.70 492.30 L 561.70 495.20 L 562.30 498.30 L 562.30 501.30 L 561.70 504.40 L 560.70 507.30 L 559.10 510.00 L 557.00 512.50 L 430.70 638.90 L 428.80 640.50 L 424.70 642.80 L 422.50 643.60 L 417.90 644.20 Z" fill="#22104f" fill-rule="nonzero" group-id="10" node-id="92" stroke="none" target-height="162.40002" target-width="162.29999" target-x="400" target-y="481.8"/></svg>