<?xml version="1.0" standalone="no"?><!DOCTYPE svg PUBLIC "-//W3C//DTD SVG 1.1//EN" "http://www.w3.org/Graphics/SVG/1.1/DTD/svg11.dtd"><svg height="48" node-id="1" sillyvg="true" template-height="48" template-width="48" version="1.1" viewBox="0 0 48 48" width="48" xmlns="http://www.w3.org/2000/svg" xmlns:xlink="http://www.w3.org/1999/xlink"><defs node-id="37"></defs><path d="M 14.20 16.90 L 33.80 16.90 L 36.20 17.50 L 38.00 19.30 L 38.60 21.70 L 38.60 39.60 L 38.00 42.10 L 36.20 43.80 L 35.10 44.30 L 14.20 44.50 L 11.80 43.80 L 10.00 42.10 L 9.40 39.60 L 9.60 20.40 L 10.00 19.30 L 11.80 17.50 L 14.20 16.90 Z" fill="#adc4d9" fill-rule="nonzero" id="_Rectangle_" node-id="8" stroke="none" target-height="27.6" target-width="29.199999" target-x="9.4" target-y="16.9"></path><path d="M 33.80 16.90 L 12.90 17.00 L 11.80 17.50 L 10.00 19.30 L 9.40 21.70 L 9.40 24.20 L 9.60 22.90 L 10.80 20.70 L 11.80 19.90 L 14.20 19.30 L 35.00 19.50 L 37.20 20.70 L 38.40 22.90 L 38.60 24.20 L 38.60 21.70 L 38.00 19.30 L 36.20 17.50 L 33.80 16.90 Z" fill="#c0dceb" fill-rule="nonzero" id="_Path_" node-id="9" stroke="none" target-height="7.300001" target-width="29.199999" target-x="9.4" target-y="16.9"></path><path d="M 38.60 32.70 L 27.30 32.70 L 26.00 32.40 L 25.00 31.70 L 24.30 30.70 L 24.00 29.50 L 24.00 16.90 L 35.10 17.00 L 36.20 17.50 L 38.00 19.30 L 38.60 21.70 Z" fill="#8ca4b8" fill-rule="nonzero" id="_Path_2" node-id="10" stroke="none" target-height="15.800001" target-width="14.599998" target-x="24" target-y="16.9"></path><path d="M 38.40 20.30 L 37.70 18.90 L 36.60 17.80 L 35.30 17.10 L 33.80 16.90 L 24.00 16.90 L 24.00 19.30 L 35.00 19.50 L 37.20 20.70 L 38.40 22.90 L 38.60 24.20 L 38.40 20.30 Z" fill="#adc4d9" fill-rule="nonzero" id="_Path_3" node-id="11" stroke="none" target-height="7.300001" target-width="14.599998" target-x="24" target-y="16.9"></path><path d="M 14.20 16.90 L 33.80 16.90 L 36.20 17.50 L 38.00 19.30 L 38.60 21.70 L 38.60 39.60 L 38.00 42.10 L 36.20 43.80 L 35.10 44.30 L 14.20 44.50 L 11.80 43.80 L 10.00 42.10 L 9.40 39.60 L 9.60 20.40 L 10.00 19.30 L 11.80 17.50 L 14.20 16.90 Z" fill="none" id="_Rectangle_2" node-id="12" stroke="#45413c" stroke-linecap="round" stroke-width="1" target-height="27.6" target-width="29.199999" target-x="9.4" target-y="16.9"></path><g node-id="82"><path d="M 39.50 45.50 L 37.40 46.30 L 31.80 46.80 L 24.00 47.00 L 16.20 46.80 L 10.60 46.30 L 8.80 45.80 L 8.50 45.50 L 8.80 45.20 L 10.60 44.70 L 16.20 44.20 L 24.00 44.00 L 31.80 44.20 L 37.40 44.70 L 39.50 45.50 Z" fill="#45413c" fill-opacity="0.15" fill-rule="nonzero" group-id="1" id="_Ellipse_" node-id="13" stroke="none" target-height="3" target-width="31" target-x="8.5" target-y="44"></path></g><path d="M 20.30 25.00 L 20.00 26.60 L 19.20 27.90 L 17.90 28.70 L 16.30 29.00 L 14.70 28.70 L 13.40 27.90 L 12.50 26.60 L 12.20 25.00 L 12.50 23.40 L 13.40 22.10 L 14.70 21.20 L 16.30 20.90 L 17.90 21.20 L 19.20 22.10 L 20.00 23.40 L 20.30 25.00 Z" fill="#ffffff" fill-rule="nonzero" id="_Ellipse_2" node-id="14" stroke="#45413c" stroke-linecap="round" stroke-width="1" target-height="8.1" target-width="8.099999" target-x="12.2" target-y="20.9"></path><path d="M 18.30 25.00 L 17.70 26.40 L 16.30 27.00 L 14.80 26.40 L 14.30 25.00 L 14.80 23.50 L 16.30 22.90 L 17.70 23.50 L 18.30 25.00 Z" fill="#00dba8" fill-rule="nonzero" id="_Ellipse_3" node-id="15" stroke="#45413c" stroke-linecap="round" stroke-width="1" target-height="4.1000004" target-width="3.999999" target-x="14.3" target-y="22.9"></path><path d="M 35.80 25.00 L 35.50 26.60 L 34.60 27.90 L 33.30 28.70 L 31.70 29.00 L 30.10 28.70 L 28.80 27.90 L 28.00 26.60 L 27.70 25.00 L 28.00 23.40 L 28.80 22.10 L 30.10 21.20 L 31.70 20.90 L 33.30 21.20 L 34.60 22.10 L 35.50 23.40 L 35.80 25.00 Z" fill="#ffffff" fill-rule="nonzero" id="_Ellipse_4" node-id="16" stroke="#45413c" stroke-linecap="round" stroke-width="1" target-height="8.1" target-width="8.099998" target-x="27.7" target-y="20.9"></path><path d="M 33.30 25.00 L 32.90 26.10 L 31.70 26.60 L 30.60 26.10 L 30.10 25.00 L 30.60 23.80 L 31.70 23.40 L 32.90 23.80 L 33.30 25.00 Z" fill="#00b8f0" fill-rule="nonzero" id="_Ellipse_5" node-id="17" stroke="#45413c" stroke-linecap="round" stroke-width="1" target-height="3.2000008" target-width="3.1999989" target-x="30.1" target-y="23.4"></path><path d="M 36.60 29.80 L 36.10 30.30 L 36.30 30.60 L 37.00 30.60 L 37.00 29.90 L 36.60 29.80 Z" fill="#45413c" fill-rule="nonzero" node-id="53" stroke="none" target-height="0.80000114" target-width="0.9000015" target-x="36.1" target-y="29.8"></path><path d="M 26.00 29.80 L 25.60 29.90 L 25.60 30.60 L 26.00 30.80 L 26.50 30.30 L 26.00 29.80 Z" fill="#45413c" fill-rule="nonzero" node-id="55" stroke="none" target-height="1" target-width="0.8999996" target-x="25.6" target-y="29.8"></path><path d="M 26.00 18.40 L 25.60 18.50 L 25.60 19.20 L 26.40 19.20 L 26.40 18.50 L 26.00 18.40 Z" fill="#45413c" fill-rule="nonzero" node-id="57" stroke="none" target-height="0.80000114" target-width="0.79999924" target-x="25.6" target-y="18.4"></path><path d="M 24.00 14.00 L 24.00 11.60 L 28.50 10.30 L 23.20 5.50 L 30.90 7.50 L 32.20 4.90" fill="none" id="_Path_4" node-id="21" stroke="#45413c" stroke-linecap="round" stroke-width="1" target-height="9.1" target-width="9" target-x="23.2" target-y="4.9"></path><path d="M 35.00 3.00 L 34.80 3.80 L 33.70 4.90 L 32.10 4.90 L 31.10 3.80 L 31.10 2.20 L 32.10 1.20 L 33.70 1.20 L 34.80 2.20 L 35.00 3.00 Z" fill="#ff6242" fill-rule="nonzero" id="_Ellipse_6" node-id="22" stroke="#45413c" stroke-linecap="round" stroke-width="1" target-height="3.7" target-width="3.8999996" target-x="31.1" target-y="1.2"></path><path d="M 38.60 32.70 L 27.30 32.70 L 26.00 32.40 L 25.00 31.70 L 24.30 30.70 L 24.00 29.50 L 24.00 16.90 L 35.10 17.00 L 36.20 17.50 L 38.00 19.30 L 38.60 21.70 Z" fill="none" id="_Path_5" node-id="23" stroke="#45413c" stroke-linecap="round" stroke-width="1" target-height="15.800001" target-width="14.599998" target-x="24" target-y="16.9"></path><path d="M 31.70 22.10 L 31.70 23.40" fill="none" id="_Line_" node-id="24" stroke="#45413c" stroke-linecap="round" stroke-width="1" target-height="1.2999992" target-width="0" target-x="31.7" target-y="22.1"></path><path d="M 34.60 25.00 L 33.30 25.00" fill="none" id="_Line_2" node-id="25" stroke="#45413c" stroke-linecap="round" stroke-width="1" target-height="0" target-width="1.2999992" target-x="33.3" target-y="25"></path><path d="M 31.70 27.80 L 31.70 26.60" fill="none" id="_Line_3" node-id="26" stroke="#45413c" stroke-linecap="round" stroke-width="1" target-height="1.1999989" target-width="0" target-x="31.7" target-y="26.6"></path><path d="M 28.90 25.00 L 30.10 25.00" fill="none" id="_Line_4" node-id="27" stroke="#45413c" stroke-linecap="round" stroke-width="1" target-height="0" target-width="1.2000008" target-x="28.9" target-y="25"></path><path d="M 29.70 16.90 L 18.30 16.90 L 18.50 15.70 L 19.10 14.80 L 20.00 14.20 L 21.20 14.00 L 28.00 14.20 L 28.90 14.80 L 29.50 15.70 L 29.70 16.90 Z" fill="#adc4d9" fill-rule="nonzero" id="_Path_6" node-id="28" stroke="#45413c" stroke-linecap="round" stroke-width="1" target-height="2.8999996" target-width="11.400002" target-x="18.3" target-y="14"></path><path d="M 38.60 24.20 L 40.40 24.40 L 41.20 24.90 L 41.90 26.60 L 41.70 35.70 L 40.40 37.00 L 38.60 37.20 L 38.60 24.20 Z" fill="#ffe500" fill-rule="nonzero" id="_Rectangle_3" node-id="29" stroke="#45413c" stroke-linecap="round" stroke-width="1" target-height="13" target-width="3.300003" target-x="38.6" target-y="24.2"></path><g node-id="83"><path d="M 9.40 37.20 L 7.60 37.00 L 6.80 36.40 L 6.10 34.70 L 6.30 25.70 L 7.60 24.40 L 9.40 24.20 L 9.40 37.20 Z" fill="#ffe500" fill-rule="nonzero" group-id="2" id="_Rectangle_4" node-id="30" stroke="#45413c" stroke-linecap="round" stroke-width="1" target-height="13" target-width="3.2999997" target-x="6.1" target-y="24.2"></path></g><path d="M 15.50 37.00 L 33.10 37.10 L 33.90 37.90 L 34.00 38.50 L 34.00 44.00 L 33.90 44.60 L 33.10 45.40 L 14.90 45.40 L 14.10 44.60 L 14.00 44.00 L 14.00 38.50 L 14.40 37.40 L 15.50 37.00 Z" fill="#c0dceb" fill-rule="nonzero" node-id="72" stroke="none" target-height="8.400002" target-width="20" target-x="14" target-y="37"></path><path d="M 32.50 37.00 L 15.50 37.00 L 14.90 37.10 L 14.10 37.90 L 14.00 40.50 L 14.40 39.40 L 15.50 39.00 L 32.50 39.00 L 33.60 39.40 L 34.00 40.50 L 33.90 37.90 L 33.10 37.10 L 32.50 37.00 Z" fill="#daedf7" fill-rule="nonzero" node-id="74" stroke="none" target-height="3.5" target-width="20" target-x="14" target-y="37"></path><path d="M 15.50 37.00 L 33.10 37.10 L 33.90 37.90 L 34.00 38.50 L 34.00 44.00 L 33.90 44.60 L 33.10 45.40 L 14.90 45.40 L 14.10 44.60 L 14.00 44.00 L 14.00 38.50 L 14.40 37.40 L 15.50 37.00 Z" fill="none" node-id="76" stroke="#45413c" stroke-linecap="round" stroke-width="1" target-height="8.400002" target-width="20" target-x="14" target-y="37"></path><path d="M 16.00 38.50 L 15.60 38.60 L 15.60 39.40 L 16.40 39.40 L 16.50 39.00 L 16.00 38.50 Z" fill="#45413c" fill-rule="nonzero" node-id="78" stroke="none" target-height="0.9000015" target-width="0.8999996" target-x="15.6" target-y="38.5"></path><path d="M 32.00 38.50 L 31.60 38.60 L 31.60 39.40 L 32.40 39.40 L 32.50 39.00 L 32.00 38.50 Z" fill="#45413c" fill-rule="nonzero" node-id="80" stroke="none" target-height="0.9000015" target-width="0.8999996" target-x="31.6" target-y="38.5"></path></svg>