<?xml version="1.0" standalone="no"?><!DOCTYPE svg PUBLIC "-//W3C//DTD SVG 1.1//EN" "http://www.w3.org/Graphics/SVG/1.1/DTD/svg11.dtd"><svg height="1200" node-id="1" sillyvg="true" template-height="1200" template-width="1200" version="1.1" viewBox="0 0 1200 1200" width="1200" xmlns="http://www.w3.org/2000/svg" xmlns:xlink="http://www.w3.org/1999/xlink"><defs node-id="32"><clipPath id="clip-path" node-id="5"><path d="M 1062.10 600.00 L 1061.90 614.70 L 1061.20 629.40 L 1060.00 643.90 L 1058.40 658.40 L 1056.40 672.70 L 1053.90 687.10 L 1050.90 701.20 L 1047.50 715.30 L 1043.70 729.20 L 1039.40 743.00 L 1034.80 756.70 L 1029.70 770.20 L 1024.10 783.50 L 1018.20 796.60 L 1011.90 809.60 L 1005.10 822.40 L 998.00 834.90 L 990.40 847.30 L 982.50 859.40 L 974.10 871.30 L 965.40 882.90 L 956.30 894.30 L 946.90 905.30 L 937.00 916.20 L 926.80 926.80 L 916.20 937.00 L 905.30 946.90 L 894.30 956.30 L 882.90 965.40 L 871.30 974.10 L 859.40 982.50 L 847.30 990.40 L 834.90 998.00 L 822.40 1005.10 L 809.60 1011.90 L 796.60 1018.20 L 783.50 1024.10 L 770.20 1029.70 L 756.70 1034.80 L 743.00 1039.40 L 729.20 1043.70 L 715.30 1047.50 L 701.20 1050.90 L 687.10 1053.90 L 672.70 1056.40 L 658.40 1058.40 L 643.90 1060.00 L 629.40 1061.20 L 614.70 1061.90 L 600.00 1062.10 L 585.30 1061.90 L 570.60 1061.20 L 556.10 1060.00 L 541.60 1058.40 L 527.30 1056.40 L 512.90 1053.90 L 498.80 1050.90 L 484.70 1047.50 L 470.80 1043.70 L 457.00 1039.40 L 443.30 1034.80 L 429.80 1029.70 L 416.50 1024.10 L 403.40 1018.20 L 390.40 1011.90 L 377.60 1005.10 L 365.10 998.00 L 352.70 990.40 L 340.60 982.50 L 328.70 974.10 L 317.10 965.40 L 305.70 956.30 L 294.70 946.90 L 283.80 937.00 L 273.20 926.80 L 263.00 916.20 L 253.10 905.30 L 243.70 894.30 L 234.60 882.90 L 225.90 871.30 L 217.50 859.40 L 209.60 847.30 L 202.00 834.90 L 194.90 822.40 L 188.10 809.60 L 181.80 796.60 L 175.90 783.50 L 170.30 770.20 L 165.20 756.70 L 160.60 743.00 L 156.30 729.20 L 152.50 715.30 L 149.10 701.20 L 146.10 687.10 L 143.60 672.70 L 141.60 658.40 L 140.00 643.90 L 138.80 629.40 L 138.10 614.70 L 137.90 600.00 L 138.10 585.30 L 138.80 570.60 L 140.00 556.10 L 141.60 541.60 L 143.60 527.30 L 146.10 512.90 L 149.10 498.80 L 152.50 484.70 L 156.30 470.80 L 160.60 457.00 L 165.20 443.30 L 170.30 429.80 L 175.90 416.50 L 181.80 403.40 L 188.10 390.40 L 194.90 377.60 L 202.00 365.10 L 209.60 352.70 L 217.50 340.60 L 225.90 328.70 L 234.60 317.10 L 243.70 305.70 L 253.10 294.70 L 263.00 283.80 L 273.20 273.20 L 283.80 263.00 L 294.70 253.10 L 305.70 243.70 L 317.10 234.60 L 328.70 225.90 L 340.60 217.50 L 352.70 209.60 L 365.10 202.00 L 377.60 194.90 L 390.40 188.10 L 403.40 181.80 L 416.50 175.90 L 429.80 170.30 L 443.30 165.20 L 457.00 160.60 L 470.80 156.30 L 484.70 152.50 L 498.80 149.10 L 512.90 146.10 L 527.30 143.60 L 541.60 141.60 L 556.10 140.00 L 570.60 138.80 L 585.30 138.10 L 600.00 137.90 L 614.70 138.10 L 629.40 138.80 L 643.90 140.00 L 658.40 141.60 L 672.70 143.60 L 687.10 146.10 L 701.20 149.10 L 715.30 152.50 L 729.20 156.30 L 743.00 160.60 L 756.70 165.20 L 770.20 170.30 L 783.50 175.90 L 796.60 181.80 L 809.60 188.10 L 822.40 194.90 L 834.90 202.00 L 847.30 209.60 L 859.40 217.50 L 871.30 225.90 L 882.90 234.60 L 894.30 243.70 L 905.30 253.10 L 916.20 263.00 L 926.80 273.20 L 937.00 283.80 L 946.90 294.70 L 956.30 305.70 L 965.40 317.10 L 974.10 328.70 L 982.50 340.60 L 990.40 352.70 L 998.00 365.10 L 1005.10 377.60 L 1011.90 390.40 L 1018.20 403.40 L 1024.10 416.50 L 1029.70 429.80 L 1034.80 443.30 L 1039.40 457.00 L 1043.70 470.80 L 1047.50 484.70 L 1050.90 498.80 L 1053.90 512.90 L 1056.40 527.30 L 1058.40 541.60 L 1060.00 556.10 L 1061.20 570.60 L 1061.90 585.30 L 1062.10 600.00 Z" fill="#000000" fill-rule="nonzero" node-id="35" stroke="none" target-height="924.19995" target-width="924.19995" target-x="137.9" target-y="137.9"></path></clipPath></defs><path d="M 1062.10 600.00 L 1061.90 614.70 L 1061.20 629.40 L 1060.00 643.90 L 1058.40 658.40 L 1056.40 672.70 L 1053.90 687.10 L 1050.90 701.20 L 1047.50 715.30 L 1043.70 729.20 L 1039.40 743.00 L 1034.80 756.70 L 1029.70 770.20 L 1024.10 783.50 L 1018.20 796.60 L 1011.90 809.60 L 1005.10 822.40 L 998.00 834.90 L 990.40 847.30 L 982.50 859.40 L 974.10 871.30 L 965.40 882.90 L 956.30 894.30 L 946.90 905.30 L 937.00 916.20 L 926.80 926.80 L 916.20 937.00 L 905.30 946.90 L 894.30 956.30 L 882.90 965.40 L 871.30 974.10 L 859.40 982.50 L 847.30 990.40 L 834.90 998.00 L 822.40 1005.10 L 809.60 1011.90 L 796.60 1018.20 L 783.50 1024.10 L 770.20 1029.70 L 756.70 1034.80 L 743.00 1039.40 L 729.20 1043.70 L 715.30 1047.50 L 701.20 1050.90 L 687.10 1053.90 L 672.70 1056.40 L 658.40 1058.40 L 643.90 1060.00 L 629.40 1061.20 L 614.70 1061.90 L 600.00 1062.10 L 585.30 1061.90 L 570.60 1061.20 L 556.10 1060.00 L 541.60 1058.40 L 527.30 1056.40 L 512.90 1053.90 L 498.80 1050.90 L 484.70 1047.50 L 470.80 1043.70 L 457.00 1039.40 L 443.30 1034.80 L 429.80 1029.70 L 416.50 1024.10 L 403.40 1018.20 L 390.40 1011.90 L 377.60 1005.10 L 365.10 998.00 L 352.70 990.40 L 340.60 982.50 L 328.70 974.10 L 317.10 965.40 L 305.70 956.30 L 294.70 946.90 L 283.80 937.00 L 273.20 926.80 L 263.00 916.20 L 253.10 905.30 L 243.70 894.30 L 234.60 882.90 L 225.90 871.30 L 217.50 859.40 L 209.60 847.30 L 202.00 834.90 L 194.90 822.40 L 188.10 809.60 L 181.80 796.60 L 175.90 783.50 L 170.30 770.20 L 165.20 756.70 L 160.60 743.00 L 156.30 729.20 L 152.50 715.30 L 149.10 701.20 L 146.10 687.10 L 143.60 672.70 L 141.60 658.40 L 140.00 643.90 L 138.80 629.40 L 138.10 614.70 L 137.90 600.00 L 138.10 585.30 L 138.80 570.60 L 140.00 556.10 L 141.60 541.60 L 143.60 527.30 L 146.10 512.90 L 149.10 498.80 L 152.50 484.70 L 156.30 470.80 L 160.60 457.00 L 165.20 443.30 L 170.30 429.80 L 175.90 416.50 L 181.80 403.40 L 188.10 390.40 L 194.90 377.60 L 202.00 365.10 L 209.60 352.70 L 217.50 340.60 L 225.90 328.70 L 234.60 317.10 L 243.70 305.70 L 253.10 294.70 L 263.00 283.80 L 273.20 273.20 L 283.80 263.00 L 294.70 253.10 L 305.70 243.70 L 317.10 234.60 L 328.70 225.90 L 340.60 217.50 L 352.70 209.60 L 365.10 202.00 L 377.60 194.90 L 390.40 188.10 L 403.40 181.80 L 416.50 175.90 L 429.80 170.30 L 443.30 165.20 L 457.00 160.60 L 470.80 156.30 L 484.70 152.50 L 498.80 149.10 L 512.90 146.10 L 527.30 143.60 L 541.60 141.60 L 556.10 140.00 L 570.60 138.80 L 585.30 138.10 L 600.00 137.90 L 614.70 138.10 L 629.40 138.80 L 643.90 140.00 L 658.40 141.60 L 672.70 143.60 L 687.10 146.10 L 701.20 149.10 L 715.30 152.50 L 729.20 156.30 L 743.00 160.60 L 756.70 165.20 L 770.20 170.30 L 783.50 175.90 L 796.60 181.80 L 809.60 188.10 L 822.40 194.90 L 834.90 202.00 L 847.30 209.60 L 859.40 217.50 L 871.30 225.90 L 882.90 234.60 L 894.30 243.70 L 905.30 253.10 L 916.20 263.00 L 926.80 273.20 L 937.00 283.80 L 946.90 294.70 L 956.30 305.70 L 965.40 317.10 L 974.10 328.70 L 982.50 340.60 L 990.40 352.70 L 998.00 365.10 L 1005.10 377.60 L 1011.90 390.40 L 1018.20 403.40 L 1024.10 416.50 L 1029.70 429.80 L 1034.80 443.30 L 1039.40 457.00 L 1043.70 470.80 L 1047.50 484.70 L 1050.90 498.80 L 1053.90 512.90 L 1056.40 527.30 L 1058.40 541.60 L 1060.00 556.10 L 1061.20 570.60 L 1061.90 585.30 L 1062.10 600.00 Z" fill="#138d75" fill-rule="nonzero" node-id="39" stroke="none" target-height="924.19995" target-width="924.19995" target-x="137.9" target-y="137.9"></path><g node-id="83"><g clip-path="url(#clip-path)" group-id="1" id="sillyvg_g_0" node-id="41"><path d="M 799.50 652.90 L 806.00 1053.50 L 657.50 1121.00 L 402.90 1051.30 L 394.00 648.40 L 732.20 672.70 L 799.50 652.90 Z" fill="#eab9b1" fill-rule="nonzero" group-id="1" node-id="43" stroke="#370911" stroke-linecap="butt" stroke-width="14" target-height="472.59998" target-width="412" target-x="394" target-y="648.4"></path><path d="M 896.50 594.00 L 896.30 600.00 L 894.80 611.70 L 893.50 617.40 L 891.30 624.90 L 888.50 632.00 L 885.20 638.70 L 879.30 648.10 L 872.60 656.10 L 868.80 659.70 L 864.90 662.90 L 860.80 665.60 L 856.60 667.80 L 852.20 669.70 L 847.60 671.00 L 843.00 671.90 L 838.20 672.20 L 833.40 671.90 L 828.70 671.20 L 824.20 670.10 L 819.80 668.50 L 815.50 666.50 L 811.40 664.10 L 807.50 661.40 L 803.80 658.20 L 797.00 651.10 L 794.00 647.00 L 788.70 638.10 L 784.50 628.20 L 781.60 617.40 L 780.70 611.80 L 779.90 600.00 L 780.20 594.00 L 780.90 588.20 L 782.00 582.60 L 783.60 577.20 L 785.60 571.90 L 788.00 566.80 L 790.60 562.00 L 797.00 553.00 L 804.30 545.20 L 812.60 538.60 L 817.00 535.90 L 826.00 531.50 L 830.80 529.90 L 835.60 528.80 L 840.40 528.10 L 845.20 527.90 L 850.10 528.10 L 854.60 528.70 L 858.90 529.60 L 863.00 530.90 L 866.80 532.60 L 871.30 535.20 L 875.50 538.20 L 879.40 541.80 L 882.90 546.00 L 885.90 550.40 L 888.60 555.40 L 891.00 560.80 L 893.00 566.90 L 894.50 572.90 L 895.50 579.40 L 896.20 586.40 L 896.50 594.00 Z" fill="#fde9d1" fill-rule="nonzero" group-id="1" node-id="45" stroke="#370911" stroke-linecap="butt" stroke-width="14" target-height="144.29999" target-width="116.599976" target-x="779.9" target-y="527.9"></path><path d="M 421.10 600.00 L 420.30 611.80 L 419.40 617.40 L 416.50 628.20 L 412.30 638.10 L 407.00 647.00 L 404.00 651.10 L 397.20 658.20 L 393.50 661.40 L 389.50 664.10 L 385.50 666.50 L 381.20 668.50 L 376.80 670.10 L 372.30 671.20 L 367.60 671.90 L 362.80 672.20 L 358.00 671.90 L 353.30 671.00 L 348.80 669.70 L 344.30 667.80 L 340.00 665.60 L 335.90 662.90 L 331.90 659.70 L 324.50 652.30 L 318.00 643.60 L 315.10 638.70 L 311.80 632.00 L 308.90 624.90 L 306.60 617.40 L 305.30 611.70 L 303.70 600.00 L 303.50 594.00 L 303.80 586.40 L 304.50 579.40 L 305.60 572.90 L 307.20 566.90 L 309.20 560.80 L 311.70 555.40 L 314.50 550.40 L 317.60 546.00 L 321.20 541.80 L 325.20 538.20 L 329.40 535.20 L 334.10 532.60 L 338.90 530.60 L 344.20 529.10 L 349.80 528.20 L 355.80 527.90 L 360.60 528.10 L 365.40 528.80 L 370.20 529.90 L 375.00 531.50 L 379.60 533.50 L 388.40 538.60 L 392.70 541.80 L 400.50 548.90 L 407.40 557.40 L 410.40 562.00 L 413.00 566.80 L 415.40 571.90 L 417.40 577.20 L 419.00 582.60 L 420.10 588.20 L 420.80 594.00 L 421.10 600.00 Z" fill="#fde9d1" fill-rule="nonzero" group-id="1" node-id="47" stroke="#370911" stroke-linecap="butt" stroke-width="14" target-height="144.29999" target-width="117.600006" target-x="303.5" target-y="527.9"></path><path d="M 831.10 559.30 L 830.80 572.70 L 830.00 585.80 L 828.80 598.70 L 827.10 611.40 L 824.90 623.80 L 822.30 636.30 L 819.20 648.40 L 815.70 660.30 L 811.90 671.80 L 807.60 683.10 L 802.80 694.20 L 797.70 705.00 L 792.20 715.50 L 786.40 725.60 L 780.30 735.30 L 773.70 744.90 L 766.80 754.00 L 759.70 762.70 L 752.20 771.00 L 744.50 778.90 L 736.40 786.50 L 728.00 793.60 L 719.50 800.20 L 710.70 806.40 L 701.60 812.10 L 692.30 817.40 L 682.70 822.10 L 673.00 826.40 L 663.10 830.10 L 653.00 833.30 L 642.70 835.90 L 632.30 838.00 L 621.70 839.50 L 611.00 840.40 L 600.00 840.70 L 589.00 840.40 L 578.30 839.50 L 567.70 838.00 L 557.30 835.90 L 547.00 833.30 L 536.90 830.10 L 527.00 826.40 L 517.30 822.10 L 507.70 817.40 L 498.40 812.10 L 489.30 806.40 L 480.50 800.20 L 472.00 793.60 L 463.60 786.50 L 455.50 778.90 L 447.80 771.00 L 440.30 762.70 L 433.20 754.00 L 426.30 744.90 L 419.70 735.30 L 413.60 725.60 L 407.80 715.50 L 402.30 705.00 L 397.20 694.20 L 392.40 683.10 L 388.10 671.80 L 384.30 660.30 L 380.80 648.40 L 377.70 636.30 L 375.10 623.80 L 372.90 611.40 L 371.20 598.70 L 370.00 585.80 L 369.20 572.70 L 369.00 559.30 L 369.20 545.90 L 370.00 532.80 L 371.20 519.90 L 372.90 507.20 L 375.10 494.80 L 377.70 482.30 L 380.80 470.20 L 384.30 458.30 L 388.10 446.80 L 392.40 435.50 L 397.20 424.40 L 402.30 413.60 L 407.80 403.10 L 413.60 393.00 L 419.70 383.30 L 426.30 373.70 L 433.20 364.60 L 440.30 355.90 L 447.80 347.60 L 455.50 339.70 L 463.60 332.10 L 472.00 325.00 L 480.50 318.40 L 489.30 312.20 L 498.40 306.50 L 507.70 301.20 L 517.30 296.50 L 527.00 292.20 L 536.90 288.50 L 547.00 285.30 L 557.30 282.70 L 567.70 280.60 L 578.30 279.10 L 589.00 278.20 L 600.00 277.90 L 611.00 278.20 L 621.70 279.10 L 632.30 280.60 L 642.70 282.70 L 653.00 285.30 L 663.10 288.50 L 673.00 292.20 L 682.70 296.50 L 692.30 301.20 L 701.60 306.50 L 710.70 312.20 L 719.50 318.40 L 728.00 325.00 L 736.40 332.10 L 744.50 339.70 L 752.20 347.60 L 759.70 355.90 L 766.80 364.60 L 773.70 373.70 L 780.30 383.30 L 786.40 393.00 L 792.20 403.10 L 797.70 413.60 L 802.80 424.40 L 807.60 435.50 L 811.90 446.80 L 815.70 458.30 L 819.20 470.20 L 822.30 482.30 L 824.90 494.80 L 827.10 507.20 L 828.80 519.90 L 830.00 532.80 L 830.80 545.90 L 831.10 559.30 Z" fill="#f9d9d0" fill-rule="nonzero" group-id="1" node-id="49" stroke="#370911" stroke-linecap="butt" stroke-width="14" target-height="562.80005" target-width="462.09998" target-x="369" target-y="277.9"></path><path d="M 710.90 545.20 L 710.60 549.20 L 709.90 553.00 L 708.80 556.60 L 707.20 560.00 L 705.30 563.10 L 703.00 565.80 L 700.40 568.30 L 697.60 570.40 L 694.50 572.10 L 691.20 573.30 L 687.70 574.10 L 684.00 574.40 L 680.30 574.10 L 676.90 573.30 L 673.60 572.10 L 670.50 570.40 L 667.60 568.30 L 665.00 565.80 L 662.80 563.10 L 660.90 560.00 L 659.30 556.60 L 658.10 553.00 L 657.40 549.20 L 657.20 545.20 L 657.40 541.20 L 658.10 537.40 L 659.30 533.90 L 660.90 530.50 L 662.80 527.40 L 665.00 524.60 L 667.60 522.10 L 670.50 520.10 L 673.60 518.40 L 676.90 517.10 L 680.30 516.30 L 684.00 516.10 L 687.70 516.30 L 691.20 517.10 L 694.50 518.40 L 697.60 520.10 L 700.40 522.10 L 703.00 524.60 L 705.30 527.40 L 707.20 530.50 L 708.80 533.90 L 709.90 537.40 L 710.60 541.20 L 710.90 545.20 Z" fill="#271d1f" fill-rule="nonzero" group-id="1" node-id="51" stroke="none" target-height="58.30005" target-width="53.700012" target-x="657.2" target-y="516.1"></path><path d="M 645.90 479.50 L 648.10 476.90 L 652.30 474.20 L 657.80 472.10 L 661.00 471.40 L 670.10 470.60 L 675.10 470.70 L 688.40 472.20 L 698.50 474.60 L 702.40 475.90 L 707.90 478.30 L 712.10 480.70 L 715.70 483.30 L 720.10 487.70 L 722.10 490.60" fill="none" group-id="1" node-id="53" stroke="#231815" stroke-linecap="round" stroke-width="20" target-height="20" target-width="76.19995" target-x="645.9" target-y="470.6"></path><path d="M 542.80 545.20 L 542.60 549.20 L 541.90 553.00 L 540.70 556.60 L 539.10 560.00 L 537.20 563.10 L 535.00 565.80 L 532.40 568.30 L 529.50 570.40 L 526.40 572.10 L 523.10 573.30 L 519.70 574.10 L 516.00 574.40 L 512.30 574.10 L 508.80 573.30 L 505.50 572.10 L 502.40 570.40 L 499.60 568.30 L 497.00 565.80 L 494.70 563.10 L 492.80 560.00 L 491.20 556.60 L 490.10 553.00 L 489.40 549.20 L 489.10 545.20 L 489.40 541.20 L 490.10 537.40 L 491.20 533.90 L 492.80 530.50 L 494.70 527.40 L 497.00 524.60 L 499.60 522.10 L 502.40 520.10 L 505.50 518.40 L 508.80 517.10 L 512.30 516.30 L 516.00 516.10 L 519.70 516.30 L 523.10 517.10 L 526.40 518.40 L 529.50 520.10 L 532.40 522.10 L 535.00 524.60 L 537.20 527.40 L 539.10 530.50 L 540.70 533.90 L 541.90 537.40 L 542.60 541.20 L 542.80 545.20 Z" fill="#271d1f" fill-rule="nonzero" group-id="1" node-id="55" stroke="none" target-height="58.30005" target-width="53.69998" target-x="489.1" target-y="516.1"></path><path d="M 554.10 479.50 L 551.90 476.90 L 547.70 474.20 L 542.20 472.10 L 539.00 471.40 L 529.90 470.60 L 524.90 470.70 L 511.60 472.20 L 501.50 474.60 L 497.60 475.90 L 492.10 478.30 L 487.90 480.70 L 484.30 483.30 L 479.90 487.70 L 477.90 490.60" fill="none" group-id="1" node-id="57" stroke="#231815" stroke-linecap="round" stroke-width="20" target-height="20" target-width="76.19998" target-x="477.9" target-y="470.6"></path><path d="M 672.80 684.30 L 672.50 687.60 L 671.90 690.70 L 670.70 693.80 L 669.10 696.90 L 667.10 699.70 L 662.00 705.20 L 658.70 707.80 L 654.20 710.90 L 648.90 713.70 L 643.00 716.40 L 636.90 718.60 L 630.20 720.50 L 623.00 722.00 L 615.70 723.10 L 608.10 723.80 L 600.00 724.10 L 592.00 723.80 L 584.30 723.10 L 577.00 722.00 L 569.80 720.50 L 563.20 718.60 L 557.00 716.40 L 551.10 713.70 L 545.90 710.90 L 541.30 707.80 L 535.30 702.50 L 531.00 696.90 L 529.30 693.80 L 528.20 690.70 L 527.50 687.60 L 527.30 684.30 L 527.50 681.10 L 528.20 677.90 L 529.30 674.80 L 531.00 671.80 L 535.30 666.20 L 538.00 663.50 L 541.30 660.90 L 545.90 657.80 L 551.10 654.90 L 557.00 652.20 L 563.20 650.00 L 569.80 648.20 L 577.00 646.60 L 584.30 645.50 L 592.00 644.80 L 600.00 644.60 L 608.10 644.80 L 615.70 645.50 L 623.00 646.60 L 630.20 648.20 L 636.90 650.00 L 643.00 652.20 L 648.90 654.90 L 654.20 657.80 L 658.70 660.90 L 662.00 663.50 L 667.10 668.90 L 670.70 674.80 L 671.90 677.90 L 672.50 681.10 L 672.80 684.30 Z" fill="#ee8685" fill-rule="nonzero" group-id="1" node-id="59" stroke="#310304" stroke-linecap="butt" stroke-width="10" target-height="79.5" target-width="145.5" target-x="527.3" target-y="644.6"></path><path d="M 545.90 705.80 L 555.80 710.80 L 561.50 713.10 L 573.70 716.60 L 587.20 718.90 L 594.30 719.60 L 601.60 719.80 L 616.50 719.10 L 622.70 718.20 L 628.90 717.00 L 634.50 715.50 L 639.70 713.60 L 644.70 711.30 L 649.50 708.70 L 654.10 705.80 L 653.00 703.30 L 651.60 701.00 L 649.70 698.90 L 647.40 696.80 L 644.70 694.90 L 641.10 693.00 L 636.90 691.30 L 632.00 689.80 L 626.30 688.50 L 618.80 687.40 L 610.30 686.70 L 600.80 686.50 L 589.60 686.70 L 579.80 687.50 L 573.40 688.40 L 563.00 690.80 L 558.20 692.60 L 554.40 694.60 L 551.30 696.80 L 549.30 698.80 L 547.70 700.90 L 546.60 703.20 L 545.90 705.80 Z" fill="#e5415b" fill-rule="nonzero" group-id="1" node-id="61" stroke="none" target-height="33.299988" target-width="108.19995" target-x="545.9" target-y="686.5"></path><path d="M 603.90 672.70 L 625.70 672.50 L 642.30 671.50 L 655.40 669.60 L 661.00 668.10 L 666.20 666.30 L 664.20 661.20 L 661.30 657.00 L 659.20 655.20 L 656.60 653.50 L 653.80 652.20 L 650.10 651.00 L 640.60 649.30 L 627.20 648.50 L 615.40 648.50 L 600.00 649.10 L 585.30 648.60 L 574.00 648.50 L 563.70 649.00 L 556.10 649.80 L 547.60 651.80 L 541.80 654.50 L 537.70 657.90 L 535.50 660.90 L 533.80 664.30 L 540.00 667.40 L 547.50 669.60 L 557.50 671.20 L 565.90 671.90 L 576.90 672.40 L 603.90 672.70 Z" fill="#ffffff" fill-rule="nonzero" group-id="1" node-id="63" stroke="none" target-height="24.200012" target-width="132.40002" target-x="533.8" target-y="648.5"></path><path d="M 499.70 643.10 L 499.40 648.20 L 498.70 653.10 L 497.50 657.80 L 495.80 662.30 L 493.70 666.70 L 491.20 670.80 L 488.40 674.50 L 485.20 678.10 L 481.60 681.30 L 477.90 684.10 L 473.80 686.60 L 469.40 688.70 L 464.90 690.40 L 460.20 691.60 L 455.30 692.30 L 450.20 692.60 L 445.00 692.30 L 440.10 691.60 L 435.40 690.40 L 430.90 688.70 L 426.50 686.60 L 422.40 684.10 L 418.70 681.30 L 415.10 678.10 L 411.90 674.50 L 409.10 670.80 L 406.60 666.70 L 404.50 662.30 L 402.80 657.80 L 401.60 653.10 L 400.90 648.20 L 400.60 643.10 L 400.90 637.90 L 401.60 633.00 L 402.80 628.30 L 404.50 623.80 L 406.60 619.40 L 409.10 615.30 L 411.90 611.60 L 415.10 608.00 L 418.70 604.80 L 422.40 602.00 L 426.50 599.50 L 430.90 597.40 L 435.40 595.70 L 440.10 594.50 L 445.00 593.80 L 450.20 593.50 L 455.30 593.80 L 460.20 594.50 L 464.90 595.70 L 469.40 597.40 L 473.80 599.50 L 477.90 602.00 L 481.60 604.80 L 485.20 608.00 L 488.40 611.60 L 491.20 615.30 L 493.70 619.40 L 495.80 623.80 L 497.50 628.30 L 498.70 633.00 L 499.40 637.90 L 499.70 643.10 Z" fill="#de717e" fill-rule="nonzero" group-id="1" node-id="65" stroke="none" target-height="99.099976" target-width="99.100006" target-x="400.6" target-y="593.5"></path><path d="M 799.40 643.10 L 799.10 648.20 L 798.40 653.10 L 797.20 657.80 L 795.50 662.30 L 793.40 666.70 L 790.90 670.80 L 788.10 674.50 L 784.90 678.10 L 781.30 681.30 L 777.60 684.10 L 773.50 686.60 L 769.10 688.70 L 764.60 690.40 L 759.90 691.60 L 755.00 692.30 L 749.90 692.60 L 744.70 692.30 L 739.80 691.60 L 735.10 690.40 L 730.60 688.70 L 726.20 686.60 L 722.10 684.10 L 718.40 681.30 L 714.80 678.10 L 711.60 674.50 L 708.80 670.80 L 706.30 666.70 L 704.20 662.30 L 702.50 657.80 L 701.30 653.10 L 700.60 648.20 L 700.30 643.10 L 700.60 637.90 L 701.30 633.00 L 702.50 628.30 L 704.20 623.80 L 706.30 619.40 L 708.80 615.30 L 711.60 611.60 L 714.80 608.00 L 718.40 604.80 L 722.10 602.00 L 726.20 599.50 L 730.60 597.40 L 735.10 595.70 L 739.80 594.50 L 744.70 593.80 L 749.90 593.50 L 755.00 593.80 L 759.90 594.50 L 764.60 595.70 L 769.10 597.40 L 773.50 599.50 L 777.60 602.00 L 781.30 604.80 L 784.90 608.00 L 788.10 611.60 L 790.90 615.30 L 793.40 619.40 L 795.50 623.80 L 797.20 628.30 L 798.40 633.00 L 799.10 637.90 L 799.40 643.10 Z" fill="#de717e" fill-rule="nonzero" group-id="1" node-id="67" stroke="none" target-height="99.099976" target-width="99.10004" target-x="700.3" target-y="593.5"></path><path d="M 506.20 334.30 L 546.20 331.70 L 571.70 330.60 L 599.90 329.80 L 628.60 329.80 L 642.70 330.20 L 655.80 330.80 L 668.50 331.80 L 679.40 333.20 L 685.60 334.40 L 691.70 335.90 L 703.10 339.90 L 710.40 343.40 L 717.40 347.20 L 724.10 351.50 L 736.70 361.00 L 742.60 366.10 L 751.00 374.00 L 758.70 382.10 L 784.20 411.60 L 789.50 417.40 L 793.90 421.70 L 797.00 424.20 L 799.70 425.70 L 804.60 427.50 L 807.10 429.00 L 809.30 431.10 L 811.40 433.90 L 814.70 440.40 L 817.30 449.30 L 818.60 455.70 L 820.30 470.90 L 821.00 483.10 L 821.10 510.00 L 819.00 576.80 L 819.00 588.30 L 819.70 604.10 L 821.20 612.80 L 822.20 615.60 L 823.30 617.60 L 824.50 618.70 L 825.80 619.40 L 829.20 620.20 L 831.70 620.30 L 833.70 620.00 L 835.50 619.30 L 836.90 618.20 L 838.00 616.80 L 839.40 613.20 L 839.80 610.90 L 840.10 607.40 L 840.20 592.30 L 844.00 568.20 L 859.80 459.80 L 860.90 453.60 L 875.70 399.40 L 878.10 389.00 L 879.60 380.10 L 880.20 374.20 L 880.40 368.50 L 880.10 363.10 L 879.30 357.80 L 878.00 352.20 L 876.10 346.60 L 874.50 343.10 L 872.00 338.80 L 868.60 333.80 L 862.80 326.30 L 855.40 317.70 L 847.40 308.90 L 829.00 290.00 L 799.30 261.50 L 754.00 219.70 L 746.50 213.60 L 741.10 210.10 L 732.50 205.30 L 722.20 200.10 L 711.20 195.30 L 699.10 190.50 L 686.60 186.10 L 673.50 182.00 L 660.40 178.40 L 647.30 175.40 L 638.60 173.70 L 622.20 171.60 L 614.20 171.00 L 606.80 171.00 L 600.00 171.30 L 585.90 172.80 L 572.00 174.80 L 553.90 178.40 L 536.90 183.00 L 529.00 185.70 L 521.60 188.60 L 514.40 191.90 L 507.90 195.50 L 502.10 199.30 L 497.90 202.50 L 494.20 205.80 L 491.00 209.30 L 475.60 230.60 L 460.20 250.90 L 447.10 250.80 L 440.80 251.10 L 425.10 252.90 L 410.40 256.20 L 398.30 260.30 L 392.20 262.80 L 386.30 265.90 L 380.50 269.30 L 375.00 273.20 L 369.70 277.70 L 364.70 282.70 L 361.20 286.80 L 358.00 291.20 L 355.00 296.10 L 327.90 350.40 L 325.70 355.60 L 324.00 360.10 L 322.80 364.60 L 322.10 369.10 L 321.80 373.70 L 322.00 379.00 L 323.70 391.30 L 333.20 438.90 L 337.00 462.60 L 338.20 474.60 L 340.00 508.40 L 342.30 526.40 L 343.90 534.70 L 347.60 549.80 L 354.60 570.40 L 358.00 583.40 L 359.70 592.90 L 360.80 601.20 L 362.40 619.40 L 362.90 622.60 L 364.50 626.90 L 366.80 629.40 L 368.40 630.30 L 370.80 631.00 L 374.00 631.30 L 378.50 631.00 L 381.80 630.30 L 384.30 629.20 L 386.40 627.70 L 388.10 625.90 L 389.50 623.90 L 390.50 621.60 L 391.50 618.00 L 392.00 614.40 L 392.20 607.60 L 388.50 571.30 L 386.80 546.70 L 386.40 533.10 L 386.30 519.20 L 386.80 505.00 L 388.30 486.00 L 391.30 467.50 L 393.30 458.60 L 395.70 450.10 L 399.40 441.30 L 405.40 431.00 L 413.30 420.10 L 422.40 409.30 L 427.40 404.00 L 432.70 398.90 L 443.60 389.60 L 449.40 385.40 L 455.10 381.80 L 466.30 375.60 L 471.60 372.20 L 481.10 364.70 L 489.10 356.90 L 494.30 351.00 L 502.00 340.90 L 506.20 334.30 Z" fill="#351c14" fill-rule="nonzero" group-id="1" node-id="69" stroke="none" target-height="460.3" target-width="558.60004" target-x="321.8" target-y="171"></path><path d="M 731.70 1059.00 L 731.70 1240.20 L 450.20 1247.10 L 441.20 1039.50 L 731.70 1059.00 Z" fill="#f2f2f2" fill-rule="nonzero" group-id="1" node-id="71" stroke="#360810" stroke-linecap="butt" stroke-width="10" target-height="207.59998" target-width="290.5" target-x="441.2" target-y="1039.5"></path><path d="M 489.10 999.90 L 523.10 1005.40 L 543.90 1008.20 L 565.90 1010.50 L 586.80 1011.70 L 607.50 1011.50 L 628.80 1010.50 L 648.70 1009.00 L 680.90 1005.80 L 700.30 1062.10 L 676.70 1068.70 L 656.60 1073.10 L 644.80 1075.20 L 632.60 1077.00 L 619.60 1078.40 L 601.80 1079.40 L 592.60 1079.50 L 574.00 1078.60 L 564.80 1077.60 L 551.20 1075.60 L 525.80 1070.60 L 495.40 1063.60 L 487.60 1062.00 L 479.00 1060.90 L 476.40 1060.10 L 472.60 1058.00 L 471.10 1056.50 L 469.20 1052.90 L 468.40 1047.80 L 468.50 1044.50 L 469.10 1040.90 L 470.60 1035.40 L 475.10 1024.10 L 480.60 1013.60 L 489.10 999.90 Z" fill="#f2f2f2" fill-rule="nonzero" group-id="1" node-id="73" stroke="#360810" stroke-linecap="butt" stroke-width="14" target-height="79.599976" target-width="231.9" target-x="468.4" target-y="999.9"></path><path d="M 1009.40 1021.60 L 996.40 1038.20 L 989.80 1046.10 L 972.40 1065.70 L 962.00 1076.70 L 950.90 1087.60 L 938.80 1098.80 L 921.70 1113.10 L 912.80 1120.00 L 903.60 1126.50 L 894.20 1132.60 L 884.80 1138.10 L 870.20 1145.40 L 855.60 1151.10 L 835.30 1157.00 L 824.20 1159.60 L 807.40 1163.00 L 790.10 1165.90 L 772.70 1168.40 L 738.50 1172.10 L 706.90 1174.50 L 669.50 1176.10 L 648.20 1176.40 L 674.50 872.90 L 686.70 876.10 L 699.90 879.00 L 715.80 882.10 L 733.00 884.50 L 750.20 885.60 L 761.00 885.30 L 775.80 883.30 L 802.50 878.60 L 828.80 872.90 L 838.30 896.50 L 840.40 902.80 L 840.70 905.90 L 841.10 906.60 L 844.30 909.90 L 855.10 919.10 L 871.30 932.00 L 890.80 947.00 L 912.00 962.40 L 932.80 976.50 L 942.80 982.80 L 957.30 990.90 L 962.10 993.10 L 974.10 997.70 L 980.80 1000.60 L 991.90 1006.70 L 999.80 1012.20 L 1004.50 1016.20 L 1009.40 1021.60 Z" fill="#e33733" fill-rule="nonzero" group-id="1" node-id="75" stroke="#360810" stroke-linecap="round" stroke-width="14" target-height="303.5" target-width="361.2" target-x="648.2" target-y="872.9"></path><path d="M 386.00 893.10 L 360.20 913.20 L 344.20 925.20 L 327.00 937.60 L 310.20 949.00 L 295.30 958.20 L 288.70 961.70 L 275.30 967.50 L 270.60 970.20 L 256.50 979.40 L 243.00 989.70 L 231.70 999.30 L 220.80 1009.20 L 229.60 1021.90 L 245.50 1042.70 L 259.40 1059.10 L 267.10 1067.30 L 275.10 1075.20 L 283.30 1082.50 L 289.00 1087.20 L 300.30 1095.10 L 306.20 1098.40 L 311.80 1101.10 L 317.40 1103.10 L 335.80 1108.50 L 387.60 1122.00 L 473.00 1142.70 L 512.00 1151.30 L 520.20 1152.70 L 528.10 1152.90 L 533.10 1152.70 L 520.20 872.90 L 512.50 882.00 L 508.60 886.00 L 498.70 894.90 L 492.90 899.20 L 488.90 901.80 L 480.40 906.30 L 475.90 907.90 L 471.40 909.10 L 466.90 909.80 L 460.00 909.70 L 456.60 909.10 L 443.40 904.70 L 433.80 901.90 L 415.70 897.60 L 400.40 894.90 L 386.00 893.10 Z" fill="#e33733" fill-rule="nonzero" group-id="1" node-id="77" stroke="#360810" stroke-linecap="round" stroke-width="14" target-height="280" target-width="312.3" target-x="220.8" target-y="872.9"></path><path d="M 674.50 872.90 L 728.30 864.60 L 770.80 857.30 L 796.30 852.00 L 805.10 849.50 L 807.60 848.10 L 808.70 846.50 L 809.40 844.60 L 809.80 842.50 L 809.90 839.40 L 809.60 836.30 L 807.60 829.00 L 812.90 829.30 L 820.50 830.40 L 824.60 831.50 L 829.70 833.70 L 831.90 835.20 L 833.90 837.00 L 835.40 839.00 L 836.50 841.40 L 837.50 844.90 L 839.00 854.60 L 840.40 871.80 L 840.70 882.70 L 840.40 891.50 L 840.00 894.90 L 839.60 896.70 L 839.00 897.60 L 837.70 898.80 L 835.30 900.10 L 831.30 901.90 L 805.50 911.50 L 790.30 918.40 L 782.90 922.50 L 775.60 927.10 L 753.90 943.00 L 746.60 947.90 L 739.50 951.90 L 734.70 954.20 L 730.00 955.80 L 725.40 956.80 L 722.00 957.10 L 718.50 956.90 L 715.10 956.20 L 711.60 955.00 L 709.30 953.80 L 704.80 950.00 L 702.40 947.40 L 697.00 939.40 L 690.80 926.80 L 684.50 910.20 L 679.70 894.20 L 674.50 872.90 Z" fill="#e33733" fill-rule="nonzero" group-id="1" node-id="79" stroke="#360810" stroke-linecap="round" stroke-width="14" target-height="128.09998" target-width="166.20001" target-x="674.5" target-y="829"></path><path d="M 520.20 872.90 L 512.90 894.30 L 504.70 916.30 L 499.90 926.70 L 496.70 932.40 L 489.60 943.70 L 483.20 951.40 L 480.80 953.70 L 476.70 956.50 L 475.10 957.10 L 472.20 957.00 L 465.80 954.30 L 455.40 949.30 L 429.20 935.60 L 416.30 928.40 L 405.70 922.10 L 395.60 914.80 L 391.60 912.40 L 370.90 902.30 L 366.20 899.10 L 364.40 896.60 L 363.80 894.50 L 362.70 885.50 L 362.20 873.10 L 362.60 859.70 L 363.20 853.50 L 364.20 847.60 L 365.50 843.00 L 366.80 840.20 L 368.10 838.40 L 369.50 837.30 L 373.30 835.40 L 384.80 831.20 L 392.70 829.00 L 394.60 833.20 L 396.30 836.10 L 398.50 839.10 L 401.30 842.40 L 405.90 846.30 L 408.80 848.20 L 411.80 849.70 L 415.20 850.80 L 459.70 859.80 L 520.20 872.90 Z" fill="#e33733" fill-rule="nonzero" group-id="1" node-id="81" stroke="#360810" stroke-linecap="round" stroke-width="14" target-height="128.09998" target-width="158" target-x="362.2" target-y="829"></path></g></g></svg>